<?xml version="1.0" encoding="UTF-8" standalone="no"?>
<!-- Created with Inkscape (http://www.inkscape.org/) -->

<svg
   width="64.822922mm"
   height="90.122925mm"
   viewBox="0 0 64.822922 90.122925"
   version="1.1"
   id="svg1"
   xml:space="preserve"
   inkscape:version="1.3 (0e150ed6c4, 2023-07-21)"
   sodipodi:docname="Carta Verso.svg"
   inkscape:export-filename="Carta Verso.png"
   inkscape:export-xdpi="600"
   inkscape:export-ydpi="600"
   xmlns:inkscape="http://www.inkscape.org/namespaces/inkscape"
   xmlns:sodipodi="http://sodipodi.sourceforge.net/DTD/sodipodi-0.dtd"
   xmlns:xlink="http://www.w3.org/1999/xlink"
   xmlns="http://www.w3.org/2000/svg"
   xmlns:svg="http://www.w3.org/2000/svg"><sodipodi:namedview
     id="namedview1"
     pagecolor="#ffffff"
     bordercolor="#000000"
     borderopacity="0.25"
     inkscape:showpageshadow="2"
     inkscape:pageopacity="0.0"
     inkscape:pagecheckerboard="0"
     inkscape:deskcolor="#d1d1d1"
     inkscape:document-units="mm"
     inkscape:zoom="1.3843855"
     inkscape:cx="60.31557"
     inkscape:cy="213.45211"
     inkscape:window-width="1920"
     inkscape:window-height="991"
     inkscape:window-x="-9"
     inkscape:window-y="-9"
     inkscape:window-maximized="1"
     inkscape:current-layer="g44" /><defs
     id="defs1"><linearGradient
       id="linearGradient1"
       inkscape:collect="always"><stop
         style="stop-color:#ffffff;stop-opacity:1;"
         offset="0"
         id="stop3" /><stop
         style="stop-color:#cccccc;stop-opacity:1;"
         offset="0.5"
         id="stop1" /><stop
         style="stop-color:#ffffff;stop-opacity:1;"
         offset="1"
         id="stop2" /></linearGradient><linearGradient
       inkscape:collect="always"
       xlink:href="#linearGradient1"
       id="linearGradient2"
       x1="53.513512"
       y1="79.505791"
       x2="163.9807"
       y2="246.5444"
       gradientUnits="userSpaceOnUse"
       gradientTransform="matrix(0.57483137,0,0,0.53161364,42.488752,61.833633)" /><clipPath
       clipPathUnits="userSpaceOnUse"
       id="clipPath522"><path
         id="path522"
         style="display:inline;fill:none;fill-opacity:1;stroke:none;stroke-width:1.813;stroke-dasharray:none"
         inkscape:label="CUT"
         d="m 89.309664,112.37237 h 31.380676 c 5.61987,0 10.14417,4.5243 10.14417,10.14417 v 51.96692 c 0,5.61987 -4.5243,10.14417 -10.14417,10.14417 H 89.309664 c -5.619873,0 -10.144175,-4.5243 -10.144175,-10.14417 v -51.96692 c 0,-5.61987 4.524302,-10.14417 10.144175,-10.14417 z"
         clip-path="none" /></clipPath></defs><g
     inkscape:label="Layer 1"
     inkscape:groupmode="layer"
     id="layer1"
     transform="translate(-72.58854,-103.43854)"><g
       id="g44"
       inkscape:label="Carta"><rect
         style="fill:url(#linearGradient2);stroke:none;stroke-width:1.32292;stroke-dasharray:none;stroke-opacity:1"
         id="rect1"
         width="63.5"
         height="88.800003"
         x="73.25"
         y="104.1"
         ry="12.466949"
         rx="12.466949"
         inkscape:label="Card" /><rect
         style="display:inline;fill:none;fill-opacity:1;stroke:#cd0000;stroke-width:2;stroke-linecap:butt;stroke-dasharray:none;stroke-dashoffset:0;stroke-opacity:1"
         id="rect5"
         width="57.00193"
         height="79.712936"
         x="76.499031"
         y="108.64353"
         ry="11.191184"
         rx="11.191184"
         inkscape:label="Outer Border" /><g
         id="g414"
         clip-path="url(#clipPath522)"
         inkscape:label="Pattern"><path
           id="path3"
           style="opacity:1;fill-opacity:1;stroke-width:0.075;stroke:none;stroke-opacity:1;fill:#cd0000"
           inkscape:transform-center-x="-0.022809513"
           inkscape:transform-center-y="0.17213445"
           d="m 79.750894,103.43854 c 0.01753,0.0492 0.09987,0.0753 0.130077,0.12378 l 1.5e-4,1.4e-4 c 0.0032,8.5e-4 0.006,0.001 0.0092,0.002 -0.001,0.004 -0.002,0.007 -0.0031,0.011 0.025,0.0575 0.0106,0.14817 0.0668,0.17095 0.04556,0.0185 0.0888,-0.0279 0.134469,-0.0587 v -0.24946 z m 0.136377,0.13726 c -0.002,-0.005 -0.0036,-0.009 -0.0062,-0.0133 -0.404628,-0.10741 -0.684501,-0.1168 -0.930176,0.025 -0.32476,0.1875 -0.444696,0.4299 -0.527051,0.73726 0.307355,0.0824 0.679743,0.1273 0.93955,-0.0227 0.257404,-0.14862 0.414161,-0.3245 0.523829,-0.72627 z m 0.201269,0.13769 c -0.266886,0.27676 -0.4021,0.50537 -0.4021,0.77505 0,0.375 0.150001,0.6 0.375,0.825 0.0091,-0.009 0.01804,-0.019 0.0271,-0.0283 z m 0,5.32515 c -0.207881,0.21853 -0.4021,0.49631 -0.4021,0.7749 0,0.29677 0.07377,0.52028 0.365772,0.81548 0.0037,0.002 0.0075,0.005 0.01113,0.007 0.0089,-0.009 0.01653,-0.0174 0.02519,-0.0262 z m -0.02519,1.59785 c -6.75e-4,6.7e-4 -0.0012,0.001 -0.0019,0.002 -0.0032,-0.003 -0.0061,-0.006 -0.0092,-0.01 -0.01666,-0.0109 -0.03397,-0.0172 -0.05332,-0.0125 -0.06355,0.0158 -0.05629,0.12215 -0.09844,0.17226 -0.04215,0.0501 -0.148285,0.0613 -0.15293,0.12657 -6e-4,0.008 7.95e-4,0.0159 0.0034,0.0231 h 0.337653 v -0.27935 c -0.0083,-0.008 -0.01672,-0.016 -0.02519,-0.0227 z m -1.212305,-0.78325 c -0.127851,-5.6e-4 -0.255181,0.023 -0.389648,0.059 0.08236,0.30736 0.229743,0.6523 0.48955,0.8023 0.259807,0.15 0.492098,0.19755 0.901904,0.0877 -0.109807,-0.40974 -0.241793,-0.65927 -0.489404,-0.80223 -0.182677,-0.10546 -0.348023,-0.14606 -0.512402,-0.14677 z m -6.2146,-0.8647 c -0.01605,0.016 -0.03193,0.0333 -0.0479,0.0501 v 1.57163 c 0.281024,-0.28668 0.4229,-0.52 0.4229,-0.79673 0,-0.375 -0.15,-0.6 -0.375,-0.825 z m 1.149903,0.91304 c -0.163972,-0.003 -0.322001,0.0234 -0.451905,0.0984 -0.259103,0.1496 -0.416258,0.32659 -0.526025,0.73404 0.01366,0.002 0.02632,0.005 0.03647,0.0125 0.389133,0.1002 0.662263,0.10651 0.90205,-0.0319 0.32476,-0.1875 0.444696,-0.4299 0.527051,-0.73726 -0.153677,-0.0412 -0.323674,-0.073 -0.487646,-0.0757 z m -0.941455,0.84492 c -0.01269,-0.003 -0.02441,-0.006 -0.03735,-0.009 3e-4,-10e-4 5.78e-4,-0.002 8.79e-4,-0.003 -0.04411,-0.007 -0.1014,0.005 -0.141943,-0.0113 -0.02851,-0.012 -0.05318,-0.0396 -0.07793,-0.064 v 0.27935 h 0.226318 c 0.01467,-0.0605 0.07752,-0.12453 0.04585,-0.17534 -0.0043,-0.007 -0.0097,-0.0124 -0.01582,-0.0167 z m -0.256348,-7.30796 v 0.24946 c 0.01505,-0.0102 0.03042,-0.0186 0.04614,-0.0226 6.37e-4,-6.3e-4 0.0011,-0.001 0.0018,-0.002 4.8e-4,4.8e-4 8.4e-4,9.9e-4 0.0013,0.001 0.06344,-0.0137 0.153699,0.0371 0.195264,-0.0123 0.04215,-0.0501 -0.02618,-0.132 -0.02153,-0.19731 3.98e-4,-0.006 0.002,-0.0112 0.0034,-0.0168 z m 0.04922,0.22646 c -8.92e-4,2e-4 -0.0019,8e-5 -0.0028,3e-4 -1.05e-4,2e-5 -1.87e-4,1.2e-4 -2.92e-4,1.5e-4 -0.01637,0.0164 -0.03067,0.032 -0.04614,0.048 v 1.57178 c 0.215578,-0.22162 0.4229,-0.50882 0.4229,-0.79673 0,-0.29952 -0.07488,-0.52425 -0.373681,-0.82354 z m 0.604248,-0.22529 c -0.114575,-1.8e-4 -0.243295,0.0189 -0.396973,0.0601 0.109807,0.40981 0.241793,0.65934 0.489404,0.8023 0.324759,0.1875 0.594696,0.1701 0.902051,0.0877 -0.08236,-0.30736 -0.229743,-0.6523 -0.489551,-0.8023 -0.162379,-0.0937 -0.313973,-0.14749 -0.504931,-0.1478 z m 3.341003,3.96299 c -0.04215,0.0501 -0.134472,-0.003 -0.198025,0.0126 -0.06355,0.0158 -0.120246,0.10606 -0.180928,0.0815 -0.06068,-0.0246 -0.03849,-0.12889 -0.07312,-0.18446 -0.03463,-0.0556 -0.138031,-0.0816 -0.133385,-0.1469 0.0046,-0.0653 0.110685,-0.0764 0.152834,-0.12654 0.04215,-0.0501 0.03494,-0.15649 0.09849,-0.17225 0.06355,-0.0158 0.106895,0.0816 0.167577,0.10625 0.06068,0.0246 0.159624,-0.0151 0.194256,0.0404 0.03463,0.0556 -0.04462,0.12689 -0.04927,0.19221 -0.0047,0.0653 0.06371,0.14713 0.02156,0.19724 z m 0.501498,0.64933 c 0.32476,0.1875 0.594615,0.17009 0.901971,0.0877 -0.08236,-0.30736 -0.229663,-0.65222 -0.489471,-0.80222 -0.259807,-0.15 -0.492163,-0.19754 -0.901971,-0.0877 0.109808,0.40981 0.24186,0.65926 0.489471,0.80222 z m -1.471105,-1.80198 c -0.324759,-0.1875 -0.594615,-0.17009 -0.90197,-0.0877 0.08236,0.30736 0.229663,0.65222 0.489471,0.80222 0.259807,0.15 0.492163,0.19754 0.90197,0.0877 -0.109807,-0.40981 -0.24186,-0.65926 -0.489471,-0.80222 z m 1.883605,0.71448 c 0.324759,-0.1875 0.444615,-0.42991 0.526971,-0.73726 -0.307356,-0.0824 -0.679663,-0.12722 -0.939471,0.0228 -0.259808,0.15 -0.417163,0.32746 -0.526971,0.73726 0.409808,0.10981 0.69186,0.12017 0.939471,-0.0228 z m -2.296104,0.37302 c -0.32476,0.1875 -0.444616,0.42991 -0.526971,0.73726 0.307355,0.0824 0.679663,0.12722 0.93947,-0.0228 0.259808,-0.15 0.417163,-0.32746 0.526971,-0.73726 -0.409807,-0.10981 -0.691859,-0.12017 -0.93947,0.0228 z m 1.560552,-1.27401 c 0,-0.375 -0.15,-0.6 -0.375,-0.825 -0.225,0.225 -0.45,0.525 -0.45,0.825 0,0.3 0.075,0.525 0.375,0.825 0.3,-0.3 0.45,-0.53908 0.45,-0.825 z m -0.825,2.175 c 0,0.375 0.15,0.6 0.375,0.825 0.225,-0.225 0.45,-0.525 0.45,-0.825 0,-0.3 -0.075,-0.525 -0.375,-0.825 -0.3,0.3 -0.45,0.53908 -0.45,0.825 z m 0.477083,2.4 a 0.225,0.225 0 0 0 0.225,0.225 0.225,0.225 0 0 0 0.225,-0.225 0.225,0.225 0 0 0 -0.225,-0.225 0.225,0.225 0 0 0 -0.225,0.225 z m 3.149999,-3.15 a 0.225,0.225 0 0 0 0.225,0.225 0.225,0.225 0 0 0 0.225,-0.225 0.225,0.225 0 0 0 -0.225,-0.225 0.225,0.225 0 0 0 -0.225,0.225 z m -0.524999,0.525 a 0.225,0.225 0 0 0 0.225,0.225 0.225,0.225 0 0 0 0.225,-0.225 0.225,0.225 0 0 0 -0.225,-0.225 0.225,0.225 0 0 0 -0.225,0.225 z m -0.525,0.525 a 0.225,0.225 0 0 0 0.225,0.225 0.225,0.225 0 0 0 0.225,-0.225 0.225,0.225 0 0 0 -0.225,-0.225 0.225,0.225 0 0 0 -0.225,0.225 z m -0.525,0.525 a 0.225,0.225 0 0 0 0.225,0.225 0.225,0.225 0 0 0 0.225,-0.225 0.225,0.225 0 0 0 -0.225,-0.225 0.225,0.225 0 0 0 -0.225,0.225 z m -0.525,0.525 a 0.225,0.225 0 0 0 0.225,0.225 0.225,0.225 0 0 0 0.225,-0.225 0.225,0.225 0 0 0 -0.225,-0.225 0.225,0.225 0 0 0 -0.225,0.225 z m -0.525,0.525 a 0.225,0.225 0 0 0 0.225,0.225 0.225,0.225 0 0 0 0.225,-0.225 0.225,0.225 0 0 0 -0.225,-0.225 0.225,0.225 0 0 0 -0.225,0.225 z m -4.274998,-3.225 a 0.225,0.225 0 0 0 0.225,0.225 0.225,0.225 0 0 0 0.225,-0.225 0.225,0.225 0 0 0 -0.225,-0.225 0.225,0.225 0 0 0 -0.225,0.225 z m 3.149999,-3.15 a 0.225,0.225 0 0 0 0.225,0.225 0.225,0.225 0 0 0 0.225,-0.225 0.225,0.225 0 0 0 -0.225,-0.225 0.225,0.225 0 0 0 -0.225,0.225 z m -0.525,0.525 a 0.225,0.225 0 0 0 0.225,0.225 0.225,0.225 0 0 0 0.225,-0.225 0.225,0.225 0 0 0 -0.225,-0.225 0.225,0.225 0 0 0 -0.225,0.225 z m -0.525,0.525 a 0.225,0.225 0 0 0 0.225,0.225 0.225,0.225 0 0 0 0.225,-0.225 0.225,0.225 0 0 0 -0.225,-0.225 0.225,0.225 0 0 0 -0.225,0.225 z m -0.525,0.525 a 0.225,0.225 0 0 0 0.225,0.225 0.225,0.225 0 0 0 0.225,-0.225 0.225,0.225 0 0 0 -0.225,-0.225 0.225,0.225 0 0 0 -0.225,0.225 z m -0.525,0.525 a 0.225,0.225 0 0 0 0.225,0.225 0.225,0.225 0 0 0 0.225,-0.225 0.225,0.225 0 0 0 -0.225,-0.225 0.225,0.225 0 0 0 -0.225,0.225 z m -0.525,0.525 a 0.225,0.225 0 0 0 0.225,0.225 0.225,0.225 0 0 0 0.225,-0.225 0.225,0.225 0 0 0 -0.225,-0.225 0.225,0.225 0 0 0 -0.225,0.225 z m 6.824998,0.525 a 0.225,0.225 0 0 1 -0.225,0.225 0.225,0.225 0 0 1 -0.225,-0.225 0.225,0.225 0 0 1 0.225,-0.225 0.225,0.225 0 0 1 0.225,0.225 z m -3.149999,-3.15 a 0.225,0.225 0 0 1 -0.225,0.225 0.225,0.225 0 0 1 -0.225,-0.225 0.225,0.225 0 0 1 0.225,-0.225 0.225,0.225 0 0 1 0.225,0.225 z m 0.525,0.525 a 0.225,0.225 0 0 1 -0.225,0.225 0.225,0.225 0 0 1 -0.225,-0.225 0.225,0.225 0 0 1 0.225,-0.225 0.225,0.225 0 0 1 0.225,0.225 z m 0.525,0.525 a 0.225,0.225 0 0 1 -0.225,0.225 0.225,0.225 0 0 1 -0.225,-0.225 0.225,0.225 0 0 1 0.225,-0.225 0.225,0.225 0 0 1 0.225,0.225 z m 0.525,0.525 a 0.225,0.225 0 0 1 -0.225,0.225 0.225,0.225 0 0 1 -0.225,-0.225 0.225,0.225 0 0 1 0.225,-0.225 0.225,0.225 0 0 1 0.225,0.225 z m 0.525,0.525 a 0.225,0.225 0 0 1 -0.225,0.225 0.225,0.225 0 0 1 -0.225,-0.225 0.225,0.225 0 0 1 0.225,-0.225 0.225,0.225 0 0 1 0.225,0.225 z m 0.524999,0.525 a 0.225,0.225 0 0 1 -0.225,0.225 0.225,0.225 0 0 1 -0.224999,-0.225 0.225,0.225 0 0 1 0.224999,-0.225 0.225,0.225 0 0 1 0.225,0.225 z m -3.224999,4.275 a 0.225,0.225 0 0 1 -0.225,0.225 0.225,0.225 0 0 1 -0.225,-0.225 0.225,0.225 0 0 1 0.225,-0.225 0.225,0.225 0 0 1 0.225,0.225 z m -3.149999,-3.15 a 0.225,0.225 0 0 1 -0.225,0.225 0.225,0.225 0 0 1 -0.225,-0.225 0.225,0.225 0 0 1 0.225,-0.225 0.225,0.225 0 0 1 0.225,0.225 z m 0.525,0.525 a 0.225,0.225 0 0 1 -0.225,0.225 0.225,0.225 0 0 1 -0.225,-0.225 0.225,0.225 0 0 1 0.225,-0.225 0.225,0.225 0 0 1 0.225,0.225 z m 0.525,0.525 a 0.225,0.225 0 0 1 -0.225,0.225 0.225,0.225 0 0 1 -0.225,-0.225 0.225,0.225 0 0 1 0.225,-0.225 0.225,0.225 0 0 1 0.225,0.225 z m 0.525,0.525 a 0.225,0.225 0 0 1 -0.225,0.225 0.225,0.225 0 0 1 -0.225,-0.225 0.225,0.225 0 0 1 0.225,-0.225 0.225,0.225 0 0 1 0.225,0.225 z m 0.525,0.525 a 0.225,0.225 0 0 1 -0.225,0.225 0.225,0.225 0 0 1 -0.225,-0.225 0.225,0.225 0 0 1 0.225,-0.225 0.225,0.225 0 0 1 0.225,0.225 z m 0.525,0.525 a 0.225,0.225 0 0 1 -0.225,0.225 0.225,0.225 0 0 1 -0.225,-0.225 0.225,0.225 0 0 1 0.225,-0.225 0.225,0.225 0 0 1 0.225,0.225 z"
           inkscape:tile-cx="3.7272236"
           inkscape:tile-cy="3.5775956"
           inkscape:tile-w="7.5000801"
           inkscape:tile-h="7.5005601"
           inkscape:tile-x0="-7.0000001e-06"
           inkscape:tile-y0="-0.00055000001" /><use
           x="0"
           y="0"
           inkscape:tiled-clone-of="#path3"
           xlink:href="#path3"
           id="use307"
           inkscape:transform-center-x="-2.7638718"
           inkscape:transform-center-y="2.8031578" /><use
           x="0"
           y="0"
           inkscape:tiled-clone-of="#path3"
           xlink:href="#path3"
           transform="translate(0,7.5005601)"
           id="use308"
           inkscape:transform-center-x="-2.7638718"
           inkscape:transform-center-y="8.3191948" /><use
           x="0"
           y="0"
           inkscape:tiled-clone-of="#path3"
           xlink:href="#path3"
           transform="translate(0,15.00112)"
           id="use309"
           inkscape:transform-center-x="-2.7638718"
           inkscape:transform-center-y="13.835231" /><use
           x="0"
           y="0"
           inkscape:tiled-clone-of="#path3"
           xlink:href="#path3"
           transform="translate(0,22.50168)"
           id="use310"
           inkscape:transform-center-x="-2.7638718"
           inkscape:transform-center-y="19.351268" /><use
           x="0"
           y="0"
           inkscape:tiled-clone-of="#path3"
           xlink:href="#path3"
           transform="translate(0,30.002241)"
           id="use311"
           inkscape:transform-center-x="-2.7638718"
           inkscape:transform-center-y="24.867306" /><use
           x="0"
           y="0"
           inkscape:tiled-clone-of="#path3"
           xlink:href="#path3"
           transform="translate(0,37.502801)"
           id="use312"
           inkscape:transform-center-x="-2.7638718"
           inkscape:transform-center-y="30.383343" /><use
           x="0"
           y="0"
           inkscape:tiled-clone-of="#path3"
           xlink:href="#path3"
           transform="translate(0,45.003361)"
           id="use313"
           inkscape:transform-center-x="-2.7638718"
           inkscape:transform-center-y="35.89938" /><use
           x="0"
           y="0"
           inkscape:tiled-clone-of="#path3"
           xlink:href="#path3"
           transform="translate(0,52.503921)"
           id="use314"
           inkscape:transform-center-x="-2.7638718"
           inkscape:transform-center-y="41.415417" /><use
           x="0"
           y="0"
           inkscape:tiled-clone-of="#path3"
           xlink:href="#path3"
           transform="translate(0,60.004481)"
           id="use315"
           inkscape:transform-center-x="-2.7638718"
           inkscape:transform-center-y="46.931453" /><use
           x="0"
           y="0"
           inkscape:tiled-clone-of="#path3"
           xlink:href="#path3"
           transform="translate(0,67.505041)"
           id="use316"
           inkscape:transform-center-x="-2.7638718"
           inkscape:transform-center-y="52.44749" /><use
           x="0"
           y="0"
           inkscape:tiled-clone-of="#path3"
           xlink:href="#path3"
           transform="translate(0,75.005601)"
           id="use317"
           inkscape:transform-center-x="-2.7638718"
           inkscape:transform-center-y="57.963527" /><use
           x="0"
           y="0"
           inkscape:tiled-clone-of="#path3"
           xlink:href="#path3"
           transform="translate(0,82.506162)"
           id="use318"
           inkscape:transform-center-x="-2.7638718"
           inkscape:transform-center-y="63.479565" /><use
           x="0"
           y="0"
           inkscape:tiled-clone-of="#path3"
           xlink:href="#path3"
           transform="translate(7.5000801)"
           id="use319"
           inkscape:transform-center-x="-8.2795557"
           inkscape:transform-center-y="2.8031578" /><use
           x="0"
           y="0"
           inkscape:tiled-clone-of="#path3"
           xlink:href="#path3"
           transform="translate(7.5000801,7.5005601)"
           id="use320"
           inkscape:transform-center-x="-8.2795557"
           inkscape:transform-center-y="8.3191948" /><use
           x="0"
           y="0"
           inkscape:tiled-clone-of="#path3"
           xlink:href="#path3"
           transform="translate(7.5000801,15.00112)"
           id="use321"
           inkscape:transform-center-x="-8.2795557"
           inkscape:transform-center-y="13.835231" /><use
           x="0"
           y="0"
           inkscape:tiled-clone-of="#path3"
           xlink:href="#path3"
           transform="translate(7.5000801,22.50168)"
           id="use322"
           inkscape:transform-center-x="-8.2795557"
           inkscape:transform-center-y="19.351268" /><use
           x="0"
           y="0"
           inkscape:tiled-clone-of="#path3"
           xlink:href="#path3"
           transform="translate(7.5000801,30.002241)"
           id="use323"
           inkscape:transform-center-x="-8.2795557"
           inkscape:transform-center-y="24.867306" /><use
           x="0"
           y="0"
           inkscape:tiled-clone-of="#path3"
           xlink:href="#path3"
           transform="translate(7.5000801,37.502801)"
           id="use324"
           inkscape:transform-center-x="-8.2795557"
           inkscape:transform-center-y="30.383343" /><use
           x="0"
           y="0"
           inkscape:tiled-clone-of="#path3"
           xlink:href="#path3"
           transform="translate(7.5000801,45.003361)"
           id="use325"
           inkscape:transform-center-x="-8.2795557"
           inkscape:transform-center-y="35.89938" /><use
           x="0"
           y="0"
           inkscape:tiled-clone-of="#path3"
           xlink:href="#path3"
           transform="translate(7.5000801,52.503921)"
           id="use326"
           inkscape:transform-center-x="-8.2795557"
           inkscape:transform-center-y="41.415417" /><use
           x="0"
           y="0"
           inkscape:tiled-clone-of="#path3"
           xlink:href="#path3"
           transform="translate(7.5000801,60.004481)"
           id="use327"
           inkscape:transform-center-x="-8.2795557"
           inkscape:transform-center-y="46.931453" /><use
           x="0"
           y="0"
           inkscape:tiled-clone-of="#path3"
           xlink:href="#path3"
           transform="translate(7.5000801,67.505041)"
           id="use328"
           inkscape:transform-center-x="-8.2795557"
           inkscape:transform-center-y="52.44749" /><use
           x="0"
           y="0"
           inkscape:tiled-clone-of="#path3"
           xlink:href="#path3"
           transform="translate(7.5000801,75.005601)"
           id="use329"
           inkscape:transform-center-x="-8.2795557"
           inkscape:transform-center-y="57.963527" /><use
           x="0"
           y="0"
           inkscape:tiled-clone-of="#path3"
           xlink:href="#path3"
           transform="translate(7.5000801,82.506162)"
           id="use330"
           inkscape:transform-center-x="-8.2795557"
           inkscape:transform-center-y="63.479565" /><use
           x="0"
           y="0"
           inkscape:tiled-clone-of="#path3"
           xlink:href="#path3"
           transform="translate(15.00016)"
           id="use331"
           inkscape:transform-center-x="-13.795239"
           inkscape:transform-center-y="2.8031578" /><use
           x="0"
           y="0"
           inkscape:tiled-clone-of="#path3"
           xlink:href="#path3"
           transform="translate(15.00016,7.5005601)"
           id="use332"
           inkscape:transform-center-x="-13.795239"
           inkscape:transform-center-y="8.3191948" /><use
           x="0"
           y="0"
           inkscape:tiled-clone-of="#path3"
           xlink:href="#path3"
           transform="translate(15.00016,15.00112)"
           id="use333"
           inkscape:transform-center-x="-13.795239"
           inkscape:transform-center-y="13.835231" /><use
           x="0"
           y="0"
           inkscape:tiled-clone-of="#path3"
           xlink:href="#path3"
           transform="translate(15.00016,22.50168)"
           id="use334"
           inkscape:transform-center-x="-13.795239"
           inkscape:transform-center-y="19.351268" /><use
           x="0"
           y="0"
           inkscape:tiled-clone-of="#path3"
           xlink:href="#path3"
           transform="translate(15.00016,30.002241)"
           id="use335"
           inkscape:transform-center-x="-13.795239"
           inkscape:transform-center-y="24.867306" /><use
           x="0"
           y="0"
           inkscape:tiled-clone-of="#path3"
           xlink:href="#path3"
           transform="translate(15.00016,37.502801)"
           id="use336"
           inkscape:transform-center-x="-13.795239"
           inkscape:transform-center-y="30.383343" /><use
           x="0"
           y="0"
           inkscape:tiled-clone-of="#path3"
           xlink:href="#path3"
           transform="translate(15.00016,45.003361)"
           id="use337"
           inkscape:transform-center-x="-13.795239"
           inkscape:transform-center-y="35.89938" /><use
           x="0"
           y="0"
           inkscape:tiled-clone-of="#path3"
           xlink:href="#path3"
           transform="translate(15.00016,52.503921)"
           id="use338"
           inkscape:transform-center-x="-13.795239"
           inkscape:transform-center-y="41.415417" /><use
           x="0"
           y="0"
           inkscape:tiled-clone-of="#path3"
           xlink:href="#path3"
           transform="translate(15.00016,60.004481)"
           id="use339"
           inkscape:transform-center-x="-13.795239"
           inkscape:transform-center-y="46.931453" /><use
           x="0"
           y="0"
           inkscape:tiled-clone-of="#path3"
           xlink:href="#path3"
           transform="translate(15.00016,67.505041)"
           id="use340"
           inkscape:transform-center-x="-13.795239"
           inkscape:transform-center-y="52.44749" /><use
           x="0"
           y="0"
           inkscape:tiled-clone-of="#path3"
           xlink:href="#path3"
           transform="translate(15.00016,75.005601)"
           id="use341"
           inkscape:transform-center-x="-13.795239"
           inkscape:transform-center-y="57.963527" /><use
           x="0"
           y="0"
           inkscape:tiled-clone-of="#path3"
           xlink:href="#path3"
           transform="translate(15.00016,82.506162)"
           id="use342"
           inkscape:transform-center-x="-13.795239"
           inkscape:transform-center-y="63.479565" /><use
           x="0"
           y="0"
           inkscape:tiled-clone-of="#path3"
           xlink:href="#path3"
           transform="translate(22.50024)"
           id="use343"
           inkscape:transform-center-x="-19.310923"
           inkscape:transform-center-y="2.8031578" /><use
           x="0"
           y="0"
           inkscape:tiled-clone-of="#path3"
           xlink:href="#path3"
           transform="translate(22.50024,7.5005601)"
           id="use344"
           inkscape:transform-center-x="-19.310923"
           inkscape:transform-center-y="8.3191948" /><use
           x="0"
           y="0"
           inkscape:tiled-clone-of="#path3"
           xlink:href="#path3"
           transform="translate(22.50024,15.00112)"
           id="use345"
           inkscape:transform-center-x="-19.310923"
           inkscape:transform-center-y="13.835231" /><use
           x="0"
           y="0"
           inkscape:tiled-clone-of="#path3"
           xlink:href="#path3"
           transform="translate(22.50024,22.50168)"
           id="use346"
           inkscape:transform-center-x="-19.310923"
           inkscape:transform-center-y="19.351268" /><use
           x="0"
           y="0"
           inkscape:tiled-clone-of="#path3"
           xlink:href="#path3"
           transform="translate(22.50024,30.002241)"
           id="use347"
           inkscape:transform-center-x="-19.310923"
           inkscape:transform-center-y="24.867306" /><use
           x="0"
           y="0"
           inkscape:tiled-clone-of="#path3"
           xlink:href="#path3"
           transform="translate(22.50024,37.502801)"
           id="use348"
           inkscape:transform-center-x="-19.310923"
           inkscape:transform-center-y="30.383343" /><use
           x="0"
           y="0"
           inkscape:tiled-clone-of="#path3"
           xlink:href="#path3"
           transform="translate(22.50024,45.003361)"
           id="use349"
           inkscape:transform-center-x="-19.310923"
           inkscape:transform-center-y="35.89938" /><use
           x="0"
           y="0"
           inkscape:tiled-clone-of="#path3"
           xlink:href="#path3"
           transform="translate(22.50024,52.503921)"
           id="use350"
           inkscape:transform-center-x="-19.310923"
           inkscape:transform-center-y="41.415417" /><use
           x="0"
           y="0"
           inkscape:tiled-clone-of="#path3"
           xlink:href="#path3"
           transform="translate(22.50024,60.004481)"
           id="use351"
           inkscape:transform-center-x="-19.310923"
           inkscape:transform-center-y="46.931453" /><use
           x="0"
           y="0"
           inkscape:tiled-clone-of="#path3"
           xlink:href="#path3"
           transform="translate(22.50024,67.505041)"
           id="use352"
           inkscape:transform-center-x="-19.310923"
           inkscape:transform-center-y="52.44749" /><use
           x="0"
           y="0"
           inkscape:tiled-clone-of="#path3"
           xlink:href="#path3"
           transform="translate(22.50024,75.005601)"
           id="use353"
           inkscape:transform-center-x="-19.310923"
           inkscape:transform-center-y="57.963527" /><use
           x="0"
           y="0"
           inkscape:tiled-clone-of="#path3"
           xlink:href="#path3"
           transform="translate(22.50024,82.506162)"
           id="use354"
           inkscape:transform-center-x="-19.310923"
           inkscape:transform-center-y="63.479565" /><use
           x="0"
           y="0"
           inkscape:tiled-clone-of="#path3"
           xlink:href="#path3"
           transform="translate(30.000321)"
           id="use355"
           inkscape:transform-center-x="-24.826608"
           inkscape:transform-center-y="2.8031578" /><use
           x="0"
           y="0"
           inkscape:tiled-clone-of="#path3"
           xlink:href="#path3"
           transform="translate(30.000321,7.5005601)"
           id="use356"
           inkscape:transform-center-x="-24.826608"
           inkscape:transform-center-y="8.3191948" /><use
           x="0"
           y="0"
           inkscape:tiled-clone-of="#path3"
           xlink:href="#path3"
           transform="translate(30.000321,15.00112)"
           id="use357"
           inkscape:transform-center-x="-24.826608"
           inkscape:transform-center-y="13.835231" /><use
           x="0"
           y="0"
           inkscape:tiled-clone-of="#path3"
           xlink:href="#path3"
           transform="translate(30.000321,22.50168)"
           id="use358"
           inkscape:transform-center-x="-24.826608"
           inkscape:transform-center-y="19.351268" /><use
           x="0"
           y="0"
           inkscape:tiled-clone-of="#path3"
           xlink:href="#path3"
           transform="translate(30.000321,30.002241)"
           id="use359"
           inkscape:transform-center-x="-24.826608"
           inkscape:transform-center-y="24.867306" /><use
           x="0"
           y="0"
           inkscape:tiled-clone-of="#path3"
           xlink:href="#path3"
           transform="translate(30.000321,37.502801)"
           id="use360"
           inkscape:transform-center-x="-24.826608"
           inkscape:transform-center-y="30.383343" /><use
           x="0"
           y="0"
           inkscape:tiled-clone-of="#path3"
           xlink:href="#path3"
           transform="translate(30.000321,45.003361)"
           id="use361"
           inkscape:transform-center-x="-24.826608"
           inkscape:transform-center-y="35.89938" /><use
           x="0"
           y="0"
           inkscape:tiled-clone-of="#path3"
           xlink:href="#path3"
           transform="translate(30.000321,52.503921)"
           id="use362"
           inkscape:transform-center-x="-24.826608"
           inkscape:transform-center-y="41.415417" /><use
           x="0"
           y="0"
           inkscape:tiled-clone-of="#path3"
           xlink:href="#path3"
           transform="translate(30.000321,60.004481)"
           id="use363"
           inkscape:transform-center-x="-24.826608"
           inkscape:transform-center-y="46.931453" /><use
           x="0"
           y="0"
           inkscape:tiled-clone-of="#path3"
           xlink:href="#path3"
           transform="translate(30.000321,67.505041)"
           id="use364"
           inkscape:transform-center-x="-24.826608"
           inkscape:transform-center-y="52.44749" /><use
           x="0"
           y="0"
           inkscape:tiled-clone-of="#path3"
           xlink:href="#path3"
           transform="translate(30.000321,75.005601)"
           id="use365"
           inkscape:transform-center-x="-24.826608"
           inkscape:transform-center-y="57.963527" /><use
           x="0"
           y="0"
           inkscape:tiled-clone-of="#path3"
           xlink:href="#path3"
           transform="translate(30.000321,82.506162)"
           id="use366"
           inkscape:transform-center-x="-24.826608"
           inkscape:transform-center-y="63.479565" /><use
           x="0"
           y="0"
           inkscape:tiled-clone-of="#path3"
           xlink:href="#path3"
           transform="translate(37.500401)"
           id="use367"
           inkscape:transform-center-x="-30.342292"
           inkscape:transform-center-y="2.8031578" /><use
           x="0"
           y="0"
           inkscape:tiled-clone-of="#path3"
           xlink:href="#path3"
           transform="translate(37.500401,7.5005601)"
           id="use368"
           inkscape:transform-center-x="-30.342292"
           inkscape:transform-center-y="8.3191948" /><use
           x="0"
           y="0"
           inkscape:tiled-clone-of="#path3"
           xlink:href="#path3"
           transform="translate(37.500401,15.00112)"
           id="use369"
           inkscape:transform-center-x="-30.342292"
           inkscape:transform-center-y="13.835231" /><use
           x="0"
           y="0"
           inkscape:tiled-clone-of="#path3"
           xlink:href="#path3"
           transform="translate(37.500401,22.50168)"
           id="use370"
           inkscape:transform-center-x="-30.342292"
           inkscape:transform-center-y="19.351268" /><use
           x="0"
           y="0"
           inkscape:tiled-clone-of="#path3"
           xlink:href="#path3"
           transform="translate(37.500401,30.002241)"
           id="use371"
           inkscape:transform-center-x="-30.342292"
           inkscape:transform-center-y="24.867306" /><use
           x="0"
           y="0"
           inkscape:tiled-clone-of="#path3"
           xlink:href="#path3"
           transform="translate(37.500401,37.502801)"
           id="use372"
           inkscape:transform-center-x="-30.342292"
           inkscape:transform-center-y="30.383343" /><use
           x="0"
           y="0"
           inkscape:tiled-clone-of="#path3"
           xlink:href="#path3"
           transform="translate(37.500401,45.003361)"
           id="use373"
           inkscape:transform-center-x="-30.342292"
           inkscape:transform-center-y="35.89938" /><use
           x="0"
           y="0"
           inkscape:tiled-clone-of="#path3"
           xlink:href="#path3"
           transform="translate(37.500401,52.503921)"
           id="use374"
           inkscape:transform-center-x="-30.342292"
           inkscape:transform-center-y="41.415417" /><use
           x="0"
           y="0"
           inkscape:tiled-clone-of="#path3"
           xlink:href="#path3"
           transform="translate(37.500401,60.004481)"
           id="use375"
           inkscape:transform-center-x="-30.342292"
           inkscape:transform-center-y="46.931453" /><use
           x="0"
           y="0"
           inkscape:tiled-clone-of="#path3"
           xlink:href="#path3"
           transform="translate(37.500401,67.505041)"
           id="use376"
           inkscape:transform-center-x="-30.342292"
           inkscape:transform-center-y="52.44749" /><use
           x="0"
           y="0"
           inkscape:tiled-clone-of="#path3"
           xlink:href="#path3"
           transform="translate(37.500401,75.005601)"
           id="use377"
           inkscape:transform-center-x="-30.342292"
           inkscape:transform-center-y="57.963527" /><use
           x="0"
           y="0"
           inkscape:tiled-clone-of="#path3"
           xlink:href="#path3"
           transform="translate(37.500401,82.506162)"
           id="use378"
           inkscape:transform-center-x="-30.342292"
           inkscape:transform-center-y="63.479565" /><use
           x="0"
           y="0"
           inkscape:tiled-clone-of="#path3"
           xlink:href="#path3"
           transform="translate(45.000481)"
           id="use379"
           inkscape:transform-center-x="-35.857976"
           inkscape:transform-center-y="2.8031578" /><use
           x="0"
           y="0"
           inkscape:tiled-clone-of="#path3"
           xlink:href="#path3"
           transform="translate(45.000481,7.5005601)"
           id="use380"
           inkscape:transform-center-x="-35.857976"
           inkscape:transform-center-y="8.3191948" /><use
           x="0"
           y="0"
           inkscape:tiled-clone-of="#path3"
           xlink:href="#path3"
           transform="translate(45.000481,15.00112)"
           id="use381"
           inkscape:transform-center-x="-35.857976"
           inkscape:transform-center-y="13.835231" /><use
           x="0"
           y="0"
           inkscape:tiled-clone-of="#path3"
           xlink:href="#path3"
           transform="translate(45.000481,22.50168)"
           id="use382"
           inkscape:transform-center-x="-35.857976"
           inkscape:transform-center-y="19.351268" /><use
           x="0"
           y="0"
           inkscape:tiled-clone-of="#path3"
           xlink:href="#path3"
           transform="translate(45.000481,30.002241)"
           id="use383"
           inkscape:transform-center-x="-35.857976"
           inkscape:transform-center-y="24.867306" /><use
           x="0"
           y="0"
           inkscape:tiled-clone-of="#path3"
           xlink:href="#path3"
           transform="translate(45.000481,37.502801)"
           id="use384"
           inkscape:transform-center-x="-35.857976"
           inkscape:transform-center-y="30.383343" /><use
           x="0"
           y="0"
           inkscape:tiled-clone-of="#path3"
           xlink:href="#path3"
           transform="translate(45.000481,45.003361)"
           id="use385"
           inkscape:transform-center-x="-35.857976"
           inkscape:transform-center-y="35.89938" /><use
           x="0"
           y="0"
           inkscape:tiled-clone-of="#path3"
           xlink:href="#path3"
           transform="translate(45.000481,52.503921)"
           id="use386"
           inkscape:transform-center-x="-35.857976"
           inkscape:transform-center-y="41.415417" /><use
           x="0"
           y="0"
           inkscape:tiled-clone-of="#path3"
           xlink:href="#path3"
           transform="translate(45.000481,60.004481)"
           id="use387"
           inkscape:transform-center-x="-35.857976"
           inkscape:transform-center-y="46.931453" /><use
           x="0"
           y="0"
           inkscape:tiled-clone-of="#path3"
           xlink:href="#path3"
           transform="translate(45.000481,67.505041)"
           id="use388"
           inkscape:transform-center-x="-35.857976"
           inkscape:transform-center-y="52.44749" /><use
           x="0"
           y="0"
           inkscape:tiled-clone-of="#path3"
           xlink:href="#path3"
           transform="translate(45.000481,75.005601)"
           id="use389"
           inkscape:transform-center-x="-35.857976"
           inkscape:transform-center-y="57.963527" /><use
           x="0"
           y="0"
           inkscape:tiled-clone-of="#path3"
           xlink:href="#path3"
           transform="translate(45.000481,82.506162)"
           id="use390"
           inkscape:transform-center-x="-35.857976"
           inkscape:transform-center-y="63.479565" /><use
           x="0"
           y="0"
           inkscape:tiled-clone-of="#path3"
           xlink:href="#path3"
           transform="translate(52.500561)"
           id="use391"
           inkscape:transform-center-x="-41.373659"
           inkscape:transform-center-y="2.8031578" /><use
           x="0"
           y="0"
           inkscape:tiled-clone-of="#path3"
           xlink:href="#path3"
           transform="translate(52.500561,7.5005601)"
           id="use392"
           inkscape:transform-center-x="-41.373659"
           inkscape:transform-center-y="8.3191948" /><use
           x="0"
           y="0"
           inkscape:tiled-clone-of="#path3"
           xlink:href="#path3"
           transform="translate(52.500561,15.00112)"
           id="use393"
           inkscape:transform-center-x="-41.373659"
           inkscape:transform-center-y="13.835231" /><use
           x="0"
           y="0"
           inkscape:tiled-clone-of="#path3"
           xlink:href="#path3"
           transform="translate(52.500561,22.50168)"
           id="use394"
           inkscape:transform-center-x="-41.373659"
           inkscape:transform-center-y="19.351268" /><use
           x="0"
           y="0"
           inkscape:tiled-clone-of="#path3"
           xlink:href="#path3"
           transform="translate(52.500561,30.002241)"
           id="use395"
           inkscape:transform-center-x="-41.373659"
           inkscape:transform-center-y="24.867306" /><use
           x="0"
           y="0"
           inkscape:tiled-clone-of="#path3"
           xlink:href="#path3"
           transform="translate(52.500561,37.502801)"
           id="use396"
           inkscape:transform-center-x="-41.373659"
           inkscape:transform-center-y="30.383343" /><use
           x="0"
           y="0"
           inkscape:tiled-clone-of="#path3"
           xlink:href="#path3"
           transform="translate(52.500561,45.003361)"
           id="use397"
           inkscape:transform-center-x="-41.373659"
           inkscape:transform-center-y="35.89938" /><use
           x="0"
           y="0"
           inkscape:tiled-clone-of="#path3"
           xlink:href="#path3"
           transform="translate(52.500561,52.503921)"
           id="use398"
           inkscape:transform-center-x="-41.373659"
           inkscape:transform-center-y="41.415417" /><use
           x="0"
           y="0"
           inkscape:tiled-clone-of="#path3"
           xlink:href="#path3"
           transform="translate(52.500561,60.004481)"
           id="use399"
           inkscape:transform-center-x="-41.373659"
           inkscape:transform-center-y="46.931453" /><use
           x="0"
           y="0"
           inkscape:tiled-clone-of="#path3"
           xlink:href="#path3"
           transform="translate(52.500561,67.505041)"
           id="use400"
           inkscape:transform-center-x="-41.373659"
           inkscape:transform-center-y="52.44749" /><use
           x="0"
           y="0"
           inkscape:tiled-clone-of="#path3"
           xlink:href="#path3"
           transform="translate(52.500561,75.005601)"
           id="use401"
           inkscape:transform-center-x="-41.373659"
           inkscape:transform-center-y="57.963527" /><use
           x="0"
           y="0"
           inkscape:tiled-clone-of="#path3"
           xlink:href="#path3"
           transform="translate(52.500561,82.506162)"
           id="use402"
           inkscape:transform-center-x="-41.373659"
           inkscape:transform-center-y="63.479565" /><use
           x="0"
           y="0"
           inkscape:tiled-clone-of="#path3"
           xlink:href="#path3"
           transform="translate(60.000641)"
           id="use403"
           inkscape:transform-center-x="-46.889343"
           inkscape:transform-center-y="2.8031578" /><use
           x="0"
           y="0"
           inkscape:tiled-clone-of="#path3"
           xlink:href="#path3"
           transform="translate(60.000641,7.5005601)"
           id="use404"
           inkscape:transform-center-x="-46.889343"
           inkscape:transform-center-y="8.3191948" /><use
           x="0"
           y="0"
           inkscape:tiled-clone-of="#path3"
           xlink:href="#path3"
           transform="translate(60.000641,15.00112)"
           id="use405"
           inkscape:transform-center-x="-46.889343"
           inkscape:transform-center-y="13.835231" /><use
           x="0"
           y="0"
           inkscape:tiled-clone-of="#path3"
           xlink:href="#path3"
           transform="translate(60.000641,22.50168)"
           id="use406"
           inkscape:transform-center-x="-46.889343"
           inkscape:transform-center-y="19.351268" /><use
           x="0"
           y="0"
           inkscape:tiled-clone-of="#path3"
           xlink:href="#path3"
           transform="translate(60.000641,30.002241)"
           id="use407"
           inkscape:transform-center-x="-46.889343"
           inkscape:transform-center-y="24.867306" /><use
           x="0"
           y="0"
           inkscape:tiled-clone-of="#path3"
           xlink:href="#path3"
           transform="translate(60.000641,37.502801)"
           id="use408"
           inkscape:transform-center-x="-46.889343"
           inkscape:transform-center-y="30.383343" /><use
           x="0"
           y="0"
           inkscape:tiled-clone-of="#path3"
           xlink:href="#path3"
           transform="translate(60.000641,45.003361)"
           id="use409"
           inkscape:transform-center-x="-46.889343"
           inkscape:transform-center-y="35.89938" /><use
           x="0"
           y="0"
           inkscape:tiled-clone-of="#path3"
           xlink:href="#path3"
           transform="translate(60.000641,52.503921)"
           id="use410"
           inkscape:transform-center-x="-46.889343"
           inkscape:transform-center-y="41.415417" /><use
           x="0"
           y="0"
           inkscape:tiled-clone-of="#path3"
           xlink:href="#path3"
           transform="translate(60.000641,60.004481)"
           id="use411"
           inkscape:transform-center-x="-46.889343"
           inkscape:transform-center-y="46.931453" /><use
           x="0"
           y="0"
           inkscape:tiled-clone-of="#path3"
           xlink:href="#path3"
           transform="translate(60.000641,67.505041)"
           id="use412"
           inkscape:transform-center-x="-46.889343"
           inkscape:transform-center-y="52.44749" /><use
           x="0"
           y="0"
           inkscape:tiled-clone-of="#path3"
           xlink:href="#path3"
           transform="translate(60.000641,75.005601)"
           id="use413"
           inkscape:transform-center-x="-46.889343"
           inkscape:transform-center-y="57.963527" /><use
           x="0"
           y="0"
           inkscape:tiled-clone-of="#path3"
           xlink:href="#path3"
           transform="translate(60.000641,82.506162)"
           id="use414"
           inkscape:transform-center-x="-46.889343"
           inkscape:transform-center-y="63.479565" /></g><path
         id="path1"
         style="display:inline;fill:none;fill-opacity:1;stroke:#cd0000;stroke-width:0.5;stroke-dasharray:none;stroke-opacity:1"
         inkscape:label="Inner Border"
         d="m 89.309664,112.37237 h 31.380676 c 5.61987,0 10.14417,4.5243 10.14417,10.14417 v 51.96692 c 0,5.61987 -4.5243,10.14417 -10.14417,10.14417 H 89.309664 c -5.619873,0 -10.144175,-4.5243 -10.144175,-10.14417 v -51.96692 c 0,-5.61987 4.524302,-10.14417 10.144175,-10.14417 z"
         clip-path="none" /></g></g></svg>
