<?xml version="1.0" encoding="UTF-8" standalone="no"?>
<!-- Created with Inkscape (http://www.inkscape.org/) -->

<svg
   width="70mm"
   height="40mm"
   viewBox="0 0 70 40"
   version="1.1"
   id="svg1"
   inkscape:export-filename="Seat"
   inkscape:export-xdpi="600"
   inkscape:export-ydpi="600"
   inkscape:version="1.3 (0e150ed6c4, 2023-07-21)"
   sodipodi:docname="Seat.svg"
   xmlns:inkscape="http://www.inkscape.org/namespaces/inkscape"
   xmlns:sodipodi="http://sodipodi.sourceforge.net/DTD/sodipodi-0.dtd"
   xmlns="http://www.w3.org/2000/svg"
   xmlns:svg="http://www.w3.org/2000/svg">
  <sodipodi:namedview
     id="namedview1"
     pagecolor="#ffffff"
     bordercolor="#000000"
     borderopacity="0.25"
     inkscape:showpageshadow="2"
     inkscape:pageopacity="0.0"
     inkscape:pagecheckerboard="0"
     inkscape:deskcolor="#d1d1d1"
     inkscape:document-units="mm"
     inkscape:zoom="2.8970539"
     inkscape:cx="140.31496"
     inkscape:cy="34.000058"
     inkscape:window-width="1920"
     inkscape:window-height="991"
     inkscape:window-x="-9"
     inkscape:window-y="-9"
     inkscape:window-maximized="1"
     inkscape:current-layer="g3" />
  <defs
     id="defs1" />
  <g
     inkscape:label="Seat"
     inkscape:groupmode="layer"
     id="layer1"
     transform="translate(-70,-128.5)">
    <g
       id="g3"
       inkscape:label="Seat">
      <rect
         style="display:inline;fill:#70492d;fill-opacity:1;stroke:none;stroke-width:0.264583;stroke-linecap:square;stroke-miterlimit:10"
         id="rect1"
         width="70"
         height="40"
         x="70"
         y="128.5"
         ry="20"
         inkscape:label="Seat Background" />
      <path
         id="rect9"
         style="display:inline;fill:#5b3922;fill-opacity:1;stroke:none;stroke-width:0.264583;stroke-linecap:square;stroke-miterlimit:10"
         inkscape:label="Seat Foreground"
         d="M 91.145479 128.5 C 91.018856 129.3434 90.968705 130.20133 91.089152 131.09261 C 90.947872 134.96458 91.65994 138.71671 93.712248 142.05111 C 96.320325 145.90823 92.253153 150.10312 94.082251 153.97493 C 94.063571 158.75984 94.264977 163.68732 94.390759 168.50014 L 95.236186 168.50014 C 95.313888 167.94848 95.380125 167.43054 95.334888 166.87078 C 94.676718 162.87727 95.157744 158.94393 94.789185 154.95937 C 93.388036 150.99669 95.820112 147.13813 95.116813 143.18541 C 93.572255 140.66894 92.190133 137.93379 91.906673 134.89186 C 91.507976 132.73089 91.664081 130.60955 92.003308 128.5 L 91.145479 128.5 z M 93.61923 128.5 C 93.427764 129.42556 93.271202 130.35577 93.22959 131.29983 C 93.854589 134.50591 93.61742 137.9471 95.216549 140.94885 C 96.498107 144.8706 96.76653 139.62564 97.843778 138.49422 C 98.72665 135.2625 98.70332 131.77096 97.861348 128.5 L 97.137362 128.5 C 97.677285 131.52558 98.638931 134.78181 97.349752 137.63639 C 95.311924 141.31307 93.722159 136.81914 94.298258 134.61797 C 94.185823 132.72845 93.783621 130.36451 94.407812 128.5 L 93.61923 128.5 z M 95.798425 128.5 C 94.953188 130.91636 95.238169 133.51195 95.420154 136.01014 C 97.450433 136.44898 96.547271 130.48174 95.815479 128.5 L 95.798425 128.5 z M 99.713432 128.5 C 100.38134 130.85209 100.6139 133.32885 100.38678 135.76261 C 99.799642 139.10813 98.120118 142.19821 97.541988 145.57234 C 96.262889 149.79855 98.22098 154.03784 97.961601 158.29456 C 97.207962 161.85492 97.627185 165.02551 97.443803 168.50014 L 98.204997 168.50014 C 98.316199 166.81034 98.565426 164.53682 98.671635 164.27921 C 97.372766 160.39221 99.63866 156.36155 98.526941 152.45771 C 96.991772 148.8941 98.44283 144.82833 99.471069 141.33022 C 101.21832 137.33252 101.75902 132.74531 100.71079 128.5 L 99.713432 128.5 z M 102.99075 128.5 C 103.26409 129.79762 103.45226 131.10836 103.353 132.4672 C 103.87651 135.51525 102.67926 138.47084 102.50034 141.51109 C 102.0479 144.16872 102.39122 146.85235 102.23938 149.49768 C 100.7403 153.03793 101.41322 156.7124 101.97118 160.36214 C 102.29086 162.41093 101.5547 165.86452 101.3061 168.50014 L 101.93914 168.50014 C 102.07261 164.95803 102.51926 160.64313 102.20062 156.76391 C 102.21886 152.79438 102.93479 148.8363 103.18454 144.86696 C 104.06159 140.96539 104.57118 136.93455 104.16846 132.92299 C 103.82617 131.47325 103.71998 129.98813 103.63877 128.5 L 102.99075 128.5 z M 105.42885 128.5 C 104.92403 134.86813 106.17644 141.26626 105.93114 147.65387 C 106.06681 151.60993 104.25053 155.45127 104.93999 159.38649 C 105.77264 162.03699 105.40787 165.53141 105.28002 168.50014 L 106.11201 168.50014 C 106.15808 167.44256 106.21153 166.42203 106.20089 166.06205 C 106.95486 162.32619 105.52041 158.86108 105.6955 155.1578 C 106.36836 151.92278 106.14659 148.59855 106.65203 145.34187 C 106.56734 141.46291 105.94821 137.50722 106.53369 133.60822 C 106.67854 131.92165 106.48035 130.2184 106.3213 128.5 L 105.42885 128.5 z M 108.15116 128.5 C 108.20454 130.09968 108.31053 131.69609 108.63382 133.278 C 109.02074 138.57177 107.85891 143.91361 108.35425 149.23258 C 109.24198 153.14643 108.28973 157.10855 107.82198 161.00758 C 107.94388 162.96126 107.8366 166.60883 107.77392 168.50014 L 109.18521 168.50014 C 109.43447 165.35396 108.21314 164.38376 108.48396 163.05293 C 109.63813 159.10802 109.28902 154.96651 109.1821 150.91207 C 109.52511 146.02969 109.24291 141.13667 109.27461 136.24268 C 109.48163 133.65243 109.35458 131.07452 109.1356 128.5 L 108.15116 128.5 z M 110.8218 128.5 C 110.92408 132.9332 110.97097 137.16155 110.78252 139.21924 C 110.36501 145.4563 109.76438 143.68009 110.119 149.92918 C 110.63906 154.28105 109.98256 158.89263 109.38209 163.20227 C 110.09984 164.79918 109.89592 166.74348 109.66166 168.50014 L 110.30813 168.50014 C 110.29212 167.72564 110.33164 167.00305 110.54378 165.73649 C 110.13751 161.7376 110.93875 157.42202 111.13702 153.3729 C 109.85846 149.66625 110.80185 144.19141 111.14478 140.42072 C 110.95378 136.11469 111.53855 134.05204 111.39024 129.73713 C 111.31258 129.32302 111.26068 128.91111 111.21764 128.5 L 110.8218 128.5 z M 113.38495 128.5 C 113.69645 131.55311 113.86127 135.21943 113.33534 137.74181 C 113.66993 140.77992 113.60288 143.94554 113.41699 147.0446 C 112.9756 150.83381 112.93532 154.61696 112.81858 158.41652 C 112.05025 161.72067 112.45308 165.32369 111.87238 168.50014 L 112.662 168.50014 C 112.54422 164.10403 113.69751 160.07801 113.88053 155.57018 C 113.63508 149.40814 114.87735 143.14189 114.25156 137.00284 C 114.71776 133.90311 114.59611 131.24497 114.47894 128.5 L 113.38495 128.5 z M 117.19454 128.5 C 117.19937 131.45104 116.93395 134.39755 116.30725 137.28809 C 116.5487 141.09947 115.62474 148.13097 116.3672 151.92389 C 115.16455 156.57074 115.0046 158.12145 114.28309 162.83227 C 114.46523 164.06616 114.45936 166.63978 114.34096 168.50014 L 115.19569 168.50014 C 115.28536 165.66464 114.75254 162.9312 115.12334 160.43965 C 116.08713 157.65192 117.16268 154.80894 116.78474 151.92389 C 117.2887 149.42449 116.60875 146.90524 116.56925 144.32487 C 116.4589 140.95557 117.19864 137.67368 117.5325 134.34564 C 117.54251 132.40661 117.66641 130.45246 117.75161 128.5 L 117.19454 128.5 z M 120.38556 128.50982 C 120.48621 130.17297 120.61752 131.83761 120.59381 133.49866 C 120.71128 137.23511 118.54943 140.9374 119.8352 144.61219 C 118.99982 150.08485 119.28141 155.68666 118.05908 161.10783 C 117.521 163.19401 116.72283 166.65136 116.29847 168.50014 L 116.62299 168.50014 C 117.13635 165.32066 119.17601 162.6299 119.18201 159.19838 C 119.26919 155.12523 120.12162 151.13212 120.36385 147.07716 C 120.89843 141.93771 121.32036 136.74882 121.20566 131.56286 C 121.12152 130.5639 121.11849 129.55062 121.1359 128.53359 C 120.88725 128.51979 120.6366 128.51454 120.38556 128.50982 z M 89.306315 128.51757 C 89.100699 128.52453 88.895841 128.53345 88.691882 128.54651 C 88.556495 137.2819 89.187105 146.0633 91.149097 154.5873 C 91.995726 157.65059 90.609901 160.65923 90.942391 163.73558 C 91.526395 164.96102 91.384653 166.80538 91.242114 168.50014 L 92.021912 168.50014 C 91.992813 167.09262 91.811585 165.47044 91.726839 164.62183 C 92.056409 159.27591 92.219489 153.75619 90.86746 148.5148 C 89.512031 144.95464 90.543657 141.0606 89.444808 137.43175 C 89.160744 134.49453 89.30434 131.49339 89.306315 128.51757 z M 87.320907 128.6819 C 87.031286 128.72037 86.74392 128.76562 86.458427 128.81626 C 86.517282 130.92106 86.581287 133.02596 86.577283 135.1306 C 86.434143 138.33409 85.665275 141.53165 86.109094 144.76826 C 86.785574 151.05044 88.01639 157.35073 87.361731 163.69682 C 87.571549 164.91438 87.644697 166.86378 87.682642 168.36372 C 88.02814 168.40326 88.376288 168.43437 88.727022 168.45622 C 88.825198 163.25121 88.218316 157.60561 88.09657 152.08151 C 86.872034 144.3494 87.128469 136.48902 87.320907 128.6819 z M 123.02157 128.72531 C 123.03044 131.38451 123.05297 134.04441 123.20864 136.69743 C 122.67165 141.20284 122.16313 145.76306 122.27226 150.32502 C 122.53167 154.80493 122.03049 159.57296 124.13468 163.70457 C 124.7306 164.86019 125.1752 166.38221 125.44571 167.74877 C 125.67271 167.68508 125.89907 167.62016 126.12267 167.54878 C 125.22893 165.39231 123.6852 162.84223 123.82204 160.56936 C 123.84711 156.13088 122.91984 151.71856 123.05516 147.25854 C 123.03172 143.46617 123.20169 139.69949 124.13365 135.99102 C 124.26794 133.6245 123.94773 131.24314 123.76313 128.85553 C 123.5171 128.80903 123.27076 128.76277 123.02157 128.72531 z M 84.114901 129.37488 C 83.895978 129.44175 83.680427 129.51577 83.464811 129.58986 C 82.891626 132.91043 82.072329 136.21409 82.912907 139.56547 C 84.231647 142.49551 85.472892 145.68242 84.601693 148.93958 C 83.427074 152.66544 83.84559 156.53681 84.39137 160.32906 C 84.885966 162.01476 84.787541 165.43967 84.651302 167.77616 C 84.849234 167.83061 85.047788 167.88321 85.248165 167.9317 C 85.34289 165.38136 85.238258 162.85952 85.102437 160.26964 C 84.189138 155.61928 85.141504 150.89989 85.031124 146.20538 C 85.272234 142.54002 83.543856 139.14908 83.685986 135.50009 C 83.601268 133.44746 83.855162 131.40994 84.114901 129.37488 z M 127.54274 129.96606 C 127.48107 130.82976 127.41442 131.69426 127.36394 132.5566 C 127.38124 138.32774 125.61473 144.08815 126.67251 149.8403 C 128.05582 153.60963 127.36221 157.61971 127.30141 161.51866 C 127.68036 162.99334 127.93973 165.02375 128.00266 166.84185 C 128.14284 166.78089 128.28174 166.71779 128.42021 166.65374 C 128.38683 166.19476 128.36727 165.80697 128.42641 165.23884 C 128.3764 157.19058 127.60628 149.16336 127.67968 141.11835 C 128.41818 137.51049 127.92718 133.80665 127.98044 130.14848 C 127.83554 130.08568 127.68941 130.02551 127.54274 129.96606 z M 81.369332 130.44148 C 81.19294 130.52557 81.020345 130.61598 80.846883 130.70503 C 80.691241 132.27631 80.485189 133.83891 80.004041 135.35746 C 80.421307 139.17833 80.879418 142.9944 81.306803 146.81413 C 82.330807 151.4186 81.480443 156.10997 81.616862 160.7616 C 82.124453 162.7486 81.75637 164.65815 81.422042 166.58243 C 81.62031 166.67624 81.821214 166.76579 82.023039 166.85321 C 82.285863 165.38081 82.6326 163.99335 82.550138 163.02916 C 81.212857 159.22872 82.664838 155.26323 82.705168 151.39266 C 82.295713 147.53886 81.092571 143.75 81.134721 139.83161 C 81.411751 136.71265 81.295412 133.57077 81.369332 130.44148 z M 130.65315 131.55821 C 130.76887 134.66816 130.68564 137.79344 130.7012 140.89873 C 129.91872 145.698 131.21427 150.55617 130.22526 155.32162 C 129.5033 158.76224 130.89599 162.14108 130.4268 165.58611 C 130.71818 165.40845 131.00391 165.22249 131.28515 165.03059 C 131.04107 162.46219 130.8356 159.76914 131.28928 157.33287 C 131.24958 152.12195 131.20658 146.90958 131.32597 141.70281 C 132.05297 138.49867 131.70892 135.27114 131.39005 132.04345 C 131.14833 131.87622 130.9025 131.71489 130.65315 131.55821 z M 78.041886 132.44653 C 77.71016 132.69358 77.388784 132.9539 77.07347 133.22064 C 75.499838 137.89344 76.6029 142.96828 75.715413 147.76446 C 73.818931 151.39642 73.018135 155.5483 73.929993 159.64849 C 73.93826 159.95293 73.974342 160.24113 74.00389 160.53319 C 74.451006 161.12766 74.933619 161.69333 75.443079 162.23334 C 74.109832 158.68634 73.515112 154.88239 75.003829 151.27639 C 77.400039 147.44502 76.767881 142.7999 77.289994 138.52264 C 77.825394 136.52443 77.988042 134.49073 78.041886 132.44653 z M 134.40795 134.61022 C 134.28266 135.62695 134.146 136.6425 134.01056 137.65603 C 133.07728 143.17338 134.18809 148.83611 132.99047 154.30566 C 132.74058 156.90993 133.15507 160.17687 133.59508 163.18884 C 133.80039 162.99882 134.00309 162.8059 134.20022 162.60748 C 133.718 160.67308 133.24853 158.74482 133.5708 156.69673 C 134.05575 151.55061 134.54144 146.40785 134.61414 141.23359 C 134.50736 139.18589 134.66108 137.15321 134.89113 135.12544 C 134.73367 134.95012 134.57146 134.77983 134.40795 134.61022 z M 73.747575 136.82249 C 73.485759 137.18698 73.235029 137.55939 72.99775 137.9418 C 72.148404 143.369 73.190834 148.93025 72.013831 154.30566 C 71.927505 155.20531 71.939484 156.20093 71.985925 157.22383 C 72.147807 157.5589 72.320931 157.88765 72.500623 158.21188 C 72.494332 157.71251 72.513508 157.20926 72.594157 156.69673 C 73.079103 151.55061 73.564814 146.40785 73.637504 141.23359 C 73.560488 139.75667 73.625687 138.28776 73.747575 136.82249 z M 137.18608 138.24204 C 137.00926 141.40951 137.26918 144.64555 136.69205 147.76446 C 134.79558 151.39642 133.99477 155.5483 134.90663 159.64849 C 134.92514 160.33007 135.01489 160.97054 135.13091 161.59772 C 135.39325 161.29465 135.64764 160.9847 135.89159 160.666 C 134.96582 157.57984 134.7092 154.35567 135.98047 151.27639 C 138.09905 147.88893 137.85286 143.86586 138.12762 140.02281 C 137.84264 139.41176 137.52907 138.81725 137.18608 138.24204 z M 78.973612 144.52279 C 78.362211 145.17669 78.175378 146.09118 77.949902 146.9273 C 77.515048 150.86705 74.58763 154.34372 75.266862 158.41962 C 76.735262 160.12031 77.155115 162.34053 77.872904 164.42184 C 78.391007 164.81639 78.928339 165.18654 79.484692 165.52978 C 79.950132 162.9088 79.603545 159.38665 80.393164 156.68226 C 80.451751 152.62065 79.688344 148.52732 78.973612 144.52279 z M 139.6743 144.90468 C 139.28473 145.50935 139.11171 146.24068 138.92654 146.9273 C 138.49168 150.86705 135.56479 154.34372 136.24402 158.41962 C 136.47852 158.69122 136.67722 158.9802 136.8631 159.2759 C 137.02567 159.02135 137.18219 158.76306 137.33336 158.50075 C 136.00692 155.21829 137.85534 151.81157 139.37664 148.92563 L 139.72184 149.40777 L 139.94922 149.86097 C 139.97923 149.4108 139.99986 148.95785 139.99986 148.49981 C 139.99986 147.27108 139.88448 146.07107 139.6743 144.90468 z M 70.316777 144.95533 C 70.112504 146.10586 70 147.28885 70 148.49981 C 70 149.6454 70.100467 150.76633 70.283704 151.85826 C 70.274125 149.55666 70.29073 147.25592 70.316777 144.95533 z M 78.400004 148.92563 L 78.745203 149.40777 L 79.023739 149.96277 C 80.754638 153.5972 79.345113 157.4818 79.102287 161.26751 C 79.022226 165.1033 76.624823 160.39609 76.489526 158.82735 C 74.896717 155.44524 76.828223 151.90732 78.400004 148.92563 z M 78.263062 151.2707 C 77.330818 153.46874 76.675718 155.92098 77.288444 158.2987 C 78.885715 158.71012 78.881441 153.10625 78.263062 151.2707 z M 139.2397 151.2707 C 138.46314 153.10161 137.89061 155.10874 138.0713 157.10239 C 138.71036 155.75648 139.20057 154.32599 139.52806 152.83288 C 139.46143 152.21463 139.36806 151.65172 139.2397 151.2707 z M 120.79173 159.01287 L 120.71215 159.15084 L 120.6243 159.30484 C 120.03053 161.87281 118.25924 165.86281 117.56195 168.50014 L 118.23116 168.50014 C 118.47303 167.19825 118.93962 165.61347 119.44659 164.61976 C 120.21195 160.24329 122.09056 164.08104 122.92235 166.21449 C 123.38572 166.46853 123.63738 167.30547 123.78018 168.14099 C 123.88619 168.12086 123.9931 168.10335 124.09851 168.08156 C 123.21905 165.11623 120.85273 162.32086 120.79173 159.01287 z M 120.67081 165.30292 C 120.67081 165.30292 119.82157 167.00098 119.34686 168.50014 L 119.87861 168.50014 C 120.10281 168.06367 120.50429 168.0962 120.93384 168.47689 C 121.44869 168.45343 121.95713 168.40645 122.46088 168.34511 C 122.08911 167.10362 121.5067 165.64256 120.67081 165.30292 z " />
    </g>
  </g>
</svg>
