<?xml version="1.0" encoding="UTF-8" standalone="no"?>
<!-- Created with Inkscape (http://www.inkscape.org/) -->

<svg
   width="196.72337mm"
   height="172.25839mm"
   viewBox="0 0 196.72337 172.25839"
   version="1.1"
   id="svg1"
   sodipodi:docname="Table.svg"
   inkscape:version="1.3 (0e150ed6c4, 2023-07-21)"
   inkscape:export-filename="Table.png"
   inkscape:export-xdpi="300"
   inkscape:export-ydpi="300"
   xmlns:inkscape="http://www.inkscape.org/namespaces/inkscape"
   xmlns:sodipodi="http://sodipodi.sourceforge.net/DTD/sodipodi-0.dtd"
   xmlns:xlink="http://www.w3.org/1999/xlink"
   xmlns="http://www.w3.org/2000/svg"
   xmlns:svg="http://www.w3.org/2000/svg">
  <sodipodi:namedview
     id="namedview1"
     pagecolor="#ffffff"
     bordercolor="#000000"
     borderopacity="0.25"
     inkscape:showpageshadow="2"
     inkscape:pageopacity="0.0"
     inkscape:pagecheckerboard="0"
     inkscape:deskcolor="#d1d1d1"
     inkscape:document-units="mm"
     inkscape:zoom="0.70710678"
     inkscape:cx="231.22392"
     inkscape:cy="382.54477"
     inkscape:window-width="1920"
     inkscape:window-height="991"
     inkscape:window-x="-9"
     inkscape:window-y="-9"
     inkscape:window-maximized="1"
     inkscape:current-layer="layer1" />
  <defs
     id="defs1">
    <clipPath
       clipPathUnits="userSpaceOnUse"
       id="clipPath46">
      <rect
         style="fill:#000000;stroke:#000000;stroke-width:0;stroke-linejoin:bevel;paint-order:stroke markers fill;stop-color:#000000"
         id="rect5-4"
         width="20"
         height="200"
         x="530"
         y="595" />
    </clipPath>
    <clipPath
       clipPathUnits="userSpaceOnUse"
       id="clipPath5">
      <path
         id="path5"
         style="stroke-width:0.1;stroke-linecap:square;paint-order:markers fill stroke;stop-color:#000000"
         d="M 438.25066,553.76374 H 1298.1212 V 755.15928 H 438.25066 Z"
         sodipodi:nodetypes="ccccc" />
    </clipPath>
    <clipPath
       clipPathUnits="userSpaceOnUse"
       id="clipPath52">
      <path
         id="path52"
         style="stroke-width:0.1;stroke-linecap:square;paint-order:markers fill stroke;stop-color:#000000"
         d="m -880.82767,-187.29769 h 1640.84 v 73.28155 h -1640.84 z" />
    </clipPath>
    <linearGradient
       id="linearGradient11"
       inkscape:collect="always">
      <stop
         style="stop-color:#0f6f3b;stop-opacity:1;"
         offset="0"
         id="stop10" />
      <stop
         style="stop-color:#084020;stop-opacity:1;"
         offset="0.85000002"
         id="stop11" />
      <stop
         style="stop-color:#072615;stop-opacity:1;"
         offset="1"
         id="stop1" />
    </linearGradient>
    <linearGradient
       id="swatch7"
       inkscape:swatch="solid">
      <stop
         style="stop-color:#000000;stop-opacity:1;"
         offset="0"
         id="stop7" />
    </linearGradient>
    <radialGradient
       inkscape:collect="always"
       xlink:href="#linearGradient11"
       id="radialGradient10"
       gradientUnits="userSpaceOnUse"
       gradientTransform="matrix(0.89562467,0,0,0.7838195,15.318139,44.503268)"
       cx="146.76015"
       cy="205.86162"
       fx="146.76015"
       fy="205.86162"
       r="100.13229" />
  </defs>
  <g
     inkscape:label="Table"
     inkscape:groupmode="layer"
     id="layer1"
     transform="translate(-48.398509,-119.7324)">
    <g
       id="g64"
       inkscape:label="Cloth">
      <rect
         style="display:inline;opacity:1;fill:url(#radialGradient10);fill-opacity:1;fill-rule:nonzero;stroke:none;stroke-width:5;stroke-linecap:square;stroke-miterlimit:10;stroke-dasharray:none"
         id="rect10"
         width="179.12494"
         height="156.73431"
         x="57.197681"
         y="127.49446"
         ry="78.367157"
         inkscape:label="Cloth Background" />
    </g>
    <g
       id="g63"
       inkscape:label="Border"
       transform="matrix(0.97861846,0,0,0.97861846,3.1379583,4.4016382)"
       style="display:inline;stroke:none;stroke-width:1.00039;stroke-dasharray:none;stroke-opacity:1;paint-order:fill markers stroke">
      <path
         id="rect1"
         style="display:inline;opacity:1;fill:#622613;fill-opacity:1;fill-rule:nonzero;stroke:none;stroke-width:1.00039;stroke-linecap:square;stroke-miterlimit:10;stroke-dasharray:none;stroke-opacity:1;paint-order:fill markers stroke"
         inkscape:label="Wood Background"
         d="m 134.25993,118.36151 c -48.474954,0 -87.499571,39.02514 -87.499571,87.50009 0,48.47495 39.024617,87.50008 87.499571,87.50008 h 25.00002 c 48.47495,0 87.50009,-39.02513 87.50009,-87.50008 0,-48.47495 -39.02514,-87.50009 -87.50009,-87.50009 z m 1.30483,9.13278 h 22.39088 c 43.41536,0 78.36679,34.95195 78.36679,78.36731 0,43.41536 -34.95143,78.36731 -78.36679,78.36731 h -22.39088 c -43.415364,0 -78.367312,-34.95195 -78.367312,-78.36731 0,-43.41536 34.951948,-78.36731 78.367312,-78.36731 z" />
      <path
         id="path27"
         style="display:inline;opacity:1;fill:#471b0e;fill-opacity:1;fill-rule:nonzero;stroke:#000000;stroke-width:0.510924;stroke-linecap:square;stroke-miterlimit:10;stroke-dasharray:none;stroke-opacity:1;paint-order:stroke fill markers"
         inkscape:label="Wood Foreground"
         d="m 142.14581,118.36126 c 1.41013,0.0476 2.79428,0.0385 4.18219,0 z m 8.23924,0 c 4.72186,0.18403 9.43513,0.9421 14.15927,1.23935 5.16426,1.16088 10.49814,1.8325 15.80838,1.31697 -6.75316,-1.65998 -13.8131,-2.55632 -21.09263,-2.55632 z m -3.23803,3.38061 c -0.65249,0.0221 -1.30639,0.0847 -1.96226,0.19961 -4.19764,1.31867 -10.05245,0.35111 -14.3388,0.38231 -1.856,0.20003 -5.3581,0.24534 -6.54788,-0.0924 -5.60682,0.74953 -11.27774,0.97862 -16.94792,0.75723 -0.31203,-0.0506 -0.62462,-0.0664 -0.93677,-0.10931 -0.89719,0.29921 -1.79502,0.59645 -2.67883,0.92357 2.62424,-0.2461 5.27466,-0.44514 7.95779,0.1563 6.35967,-0.79863 12.77405,-0.16457 19.15361,-0.53492 0,0 4.63557,0.22182 5.43844,0.19802 4.98113,1.0053 9.60124,-0.90672 14.53894,-0.67327 4.31336,0.89716 8.74506,0.60133 13.08731,1.27526 5.17193,-0.11286 10.44655,-0.93906 15.64521,-0.15842 3.20595,0.27532 6.45787,-0.33406 9.75106,-0.44515 -1.0249,-0.37247 -2.06552,-0.71216 -3.10813,-1.04713 -8.43536,-0.63802 -16.91029,1.01401 -25.37093,0.68911 -4.61538,0.15828 -9.11341,-1.67565 -13.68084,-1.5208 z m -22.91389,3.42655 c -2.22278,0.0109 -4.45187,0.16994 -6.6498,0.40132 -6.62655,1.13966 -13.39175,-0.052 -19.992158,1.2969 -0.381375,0.0279 -0.764673,-0.002 -1.146407,0.0143 -0.58233,0.27812 -1.150636,0.57972 -1.725684,0.87024 6.019569,0.32871 11.996949,-0.52682 17.981859,-1.05242 6.03943,0.0499 12.15414,-0.33768 18.14502,0.59565 0.67345,0.13585 1.27067,0.21519 1.83552,0.27248 0.9585,-0.0344 1.91599,-0.0724 2.88318,-0.0724 h 0.037 c 2.19663,-0.30641 3.36841,-1.09781 4.69441,-0.82799 1.37667,0.40278 2.7722,0.65809 4.17797,0.82799 h 13.48177 c 2.32849,0 4.6265,0.12037 6.90221,0.31736 3.72634,-0.0154 7.45513,-0.115 11.18473,-0.0908 6.38619,0.51041 12.71911,-0.46522 19.06279,-1.02232 0.51588,0.004 1.03614,-0.005 1.55301,-0.006 -0.47708,-0.22477 -0.96243,-0.43471 -1.44423,-0.65109 -5.07923,0.23082 -10.19578,-0.20153 -15.21802,0.82482 -7.05834,0.51589 -14.18127,-1.03326 -21.27322,-0.3728 -5.21846,1.18365 -10.50091,-0.086 -15.6996,-0.70971 -3.3682,0.21016 -12.17748,-0.12884 -12.17748,-0.12884 -2.17358,-0.3607 -4.39005,-0.49781 -6.61283,-0.48687 z m 77.49523,4.12252 c -0.54482,0.0509 -1.18973,0.13785 -1.56093,0.12515 -5.80762,0.13703 -16.00087,0.50986 -22.82306,0.48159 0.67793,0.17134 1.34493,0.36831 2.01558,0.5571 1.59188,0.0905 3.25638,0.15933 5.35712,0.0871 5.01682,-0.94082 9.84792,0.20656 14.86528,0.10666 0.95749,-0.29719 2.04215,-0.54949 3.19209,-0.75776 -0.34893,-0.19961 -0.69413,-0.40494 -1.04608,-0.59987 z m -83.18555,0.0628 c -0.22973,0.0106 -0.58882,0.0686 -0.77255,0.0623 -7.20931,0.1701 -20.963011,0.68073 -26.817267,0.35538 -0.248812,0.14144 -0.497291,0.2834 -0.744557,0.4272 4.327526,-0.005 7.157748,0.51349 12.111464,0.34324 3.885,-0.72857 7.66076,-0.21643 11.49576,0.0106 1.55672,-0.44595 3.13176,-0.8478 4.72715,-1.19869 z m 87.83243,2.71315 c -2.64972,0.657 -5.38971,1.31182 -7.5364,1.41624 -4.56396,-0.47787 -4.90431,-1.54548 -9.47277,-0.6268 -0.65044,0.0889 -1.56083,0.12413 -2.30074,0.207 1.18744,0.47283 2.35969,0.97351 3.51738,1.50179 1.11101,-0.011 2.2066,-0.035 3.40331,0.0238 3.9959,-0.51133 8.79665,-1.44448 13.32177,-1.92476 -0.3085,-0.20239 -0.62132,-0.39866 -0.93255,-0.59723 z m -99.38575,0.7868 c -0.009,0.002 -0.0124,8.9e-4 -0.0211,0.003 -4.35737,0.59532 -11.0848,1.16218 -15.321513,0.27881 -2.169206,0.23891 -4.386832,0.3103 -6.613888,0.29994 -0.485116,0.32958 -0.955122,0.67907 -1.433141,1.01809 3.02255,0.14202 6.040143,0.20838 9.03238,-0.0966 3.624663,0.54514 6.78808,0.48442 9.978652,0.3559 1.43605,-0.6633 2.89664,-1.28125 4.37863,-1.85875 z m 102.76742,1.48331 c -1.79729,0.17165 -3.67092,0.45748 -4.68279,0.65901 -2.8961,1.54479 -5.98292,1.88765 -9.07991,2.28806 0.58835,0.32589 1.16954,0.66284 1.74839,1.00331 0.24071,-0.0586 0.48344,-0.0946 0.72344,-0.16106 4.10105,-1.61129 8.43002,-2.68869 12.8481,-2.68358 -0.51175,-0.3782 -1.03696,-0.73854 -1.55723,-1.10574 z m 3.11024,2.29756 c -1.34197,0.0742 -3.37553,0.58677 -4.74193,0.894 -2.59793,0.17208 -4.67883,1.63581 -6.79501,2.99407 0.34438,0.2285 0.68604,0.46009 1.02654,0.69387 3.25377,-2.20308 6.87904,-4.06882 10.89377,-3.86167 0.19712,-0.006 0.38136,0.0276 0.57505,0.0322 -0.31762,-0.25307 -0.63719,-0.50376 -0.95842,-0.75248 z m -132.487401,0.21492 c -0.379907,0.29658 -0.762623,0.58972 -1.13743,0.89242 1.203786,-0.12506 2.40538,-0.27598 3.627209,-0.29466 4.169032,-0.13655 8.240098,0.68227 12.350677,1.15961 0.443345,-0.2657 0.897506,-0.5149 1.34654,-0.77202 -1.446037,-0.18733 -2.886131,-0.42731 -4.315265,-0.73716 -3.047494,0.19308 -7.593377,-0.13785 -11.871731,-0.24819 z m 132.870771,1.51975 c -3.16571,-0.15109 -6.55805,1.65517 -9.96228,3.50839 0.48577,0.34407 0.9784,0.67914 1.45584,1.03393 0.4553,-0.38523 0.83124,-0.81783 0.91143,-1.35815 0.32961,-1.37612 4.84345,-1.78351 7.59501,-2.1175 0.18956,-0.0166 0.41523,-0.0162 0.66957,-5.3e-4 0.80514,0.0495 1.92601,0.28397 3.03843,0.57135 -0.4429,-0.38803 -0.88467,-0.7773 -1.33545,-1.15644 -0.89349,-0.24205 -1.76418,-0.46629 -2.37255,-0.48105 z m 0,2.36146 c -1.85328,0.13808 -4.13828,0.59533 -5.42682,1.59155 -1.06974,0.84468 -1.34809,1.522 -1.18179,2.06787 0.47458,0.37583 0.95496,0.74455 1.42047,1.13109 1.47815,0.53307 3.71495,0.65255 5.18814,0.39182 0,0 5.64929,-1.02613 6.45019,-2.99724 0,0 -4.56649,-2.32312 -6.45019,-2.18509 z m -137.922145,0.3464 c -0.325857,0.29642 -0.635,0.61016 -0.956307,0.91142 1.607307,0.193 3.21108,0.42091 4.828006,0.5175 3.016202,0.31373 6.048395,0.57244 9.08413,0.77993 0.667318,-0.50411 1.350747,-0.98714 2.034595,-1.4701 -2.621751,-0.5378 -5.232923,-0.92334 -7.832639,-0.0137 -2.372128,-0.3621 -4.763472,-0.55762 -7.157785,-0.72502 z m 139.183665,0.54812 c 2.43719,0.17496 1.41372,2.01435 -1.26152,3.04371 -0.6298,0.13785 -1.40536,0.4823 -1.79697,0.4404 -3.81485,0.80231 -1.23171,-2.70062 1.79697,-3.44978 0.4947,-0.0502 0.91335,-0.0593 1.26152,-0.0343 z m 7.08756,2.73955 c -0.98171,0.60056 -2.12811,1.16877 -3.115,1.55354 -0.74427,1.35757 -5.23408,1.38826 -5.23408,1.38826 -0.68987,-0.0495 -2.02663,-0.0764 -3.25863,-0.11459 0.24225,0.21485 0.49394,0.41902 0.73347,0.63683 0.84248,0.0479 1.68579,0.11149 2.52516,0.11934 3.04975,0.01 5.87464,-1.68902 8.81535,-3.09387 -0.15702,-0.16165 -0.30801,-0.32908 -0.46627,-0.48951 z m -144.449435,0.66852 c -0.760113,-0.006 -1.520343,-7.7e-4 -2.280669,0.0174 -1.224055,0.0709 -2.481309,0.10662 -3.727012,0.13096 -0.444434,0.4623 -0.893301,0.92047 -1.32753,1.39248 3.039789,-0.29134 6.082734,-0.57232 9.142743,-0.47947 1.88439,-0.0117 3.757435,0.0809 5.630122,0.18007 0.304516,-0.26051 0.600223,-0.53093 0.908782,-0.78681 -2.775667,-0.25124 -5.55922,-0.4326 -8.346436,-0.45465 z m 146.663035,1.65439 c -0.67022,0.24138 -1.33255,0.5161 -1.98126,0.84648 -2.59425,1.33778 -6.66839,2.19923 -8.58142,2.11803 v -5.3e-4 c -0.19621,-0.009 -0.39249,0.003 -0.60938,0.003 0.43833,0.42646 0.87396,0.85502 1.30219,1.29162 2.78209,-0.22165 6.70645,-3.08513 10.36308,-3.71751 -0.16348,-0.18137 -0.32823,-0.36128 -0.49321,-0.54126 z M 79.995853,150.5071 c -1.493937,0.0345 -2.98745,0.13626 -4.480546,0.41082 -3.323072,1.21954 -6.783648,1.20085 -10.251659,1.04344 -0.251372,0.32182 -0.509244,0.63827 -0.756175,0.9637 4.56015,-0.19236 9.120795,-0.36578 13.68032,-0.52172 0.595449,-0.6391 1.191672,-1.27747 1.80806,-1.89624 z m 144.750427,1.24937 c -2.52988,0.6501 -6.35695,1.0929 -9.11423,0.96159 0.18126,0.19673 0.36569,0.39019 0.54495,0.58878 1.45615,-0.0801 2.38961,-0.17759 3.60873,-0.0507 3.08108,-0.0191 6.15741,-0.19304 9.23515,-0.32106 -0.26788,-0.35314 -0.54749,-0.69666 -0.8206,-1.04555 -1.153,-0.061 -2.31032,-0.11525 -3.454,-0.13307 z m -160.0994,3.63091 c -0.687535,0.0233 -1.37357,0.11526 -2.059943,0.1864 -0.278393,0.39693 -0.569802,0.78372 -0.841719,1.18549 1.28755,0.0241 2.565944,0.0887 3.779817,0.31472 2.877664,-0.0219 5.75389,0.0283 8.631586,0.0206 0.254367,-0.32034 0.498496,-0.64908 0.757759,-0.96528 -2.244461,0.0352 -4.484531,-0.0124 -6.707354,-0.47367 -1.191363,-0.24999 -2.377,-0.30829 -3.560146,-0.26825 z m 164.80173,0 c -3.54944,0.12014 -7.07561,1.12368 -10.65985,0.47842 -0.041,-0.0198 -0.31832,0.008 -0.39921,-0.003 0.34337,0.41507 0.66789,0.8456 1.00278,1.26786 3.62093,-0.35066 7.47154,-0.70189 10.93443,-0.057 0.55349,-0.004 1.10669,0.008 1.66021,0.004 -0.37927,-0.56569 -0.78025,-1.11459 -1.17229,-1.67076 -0.45573,-0.0189 -0.91128,-0.0349 -1.36607,-0.0195 z m -162.543239,3.85639 c -2.27493,0.0276 -4.736848,0.31402 -7.168874,0.64211 -0.184806,0.29981 -0.370546,0.59865 -0.551818,0.90086 2.348373,-0.57522 4.701595,-1.06246 7.188412,-0.67116 1.725927,0.16265 3.453029,0.29958 5.179163,0.4536 0.187524,-0.26511 0.373236,-0.53154 0.563963,-0.79419 -0.854397,-0.11159 -1.706588,-0.24783 -2.55473,-0.43353 -0.838381,-0.0804 -1.729737,-0.10894 -2.656116,-0.0977 z m 164.801729,0 c -3.17091,0.0385 -6.68602,0.5305 -9.95912,1.01545 0.21734,0.30412 0.43591,0.60722 0.64898,0.91459 2.88307,-0.70641 5.73078,-1.53769 8.77786,-1.05823 0.97294,0.0917 1.94671,0.16542 2.91961,0.25558 -0.219,-0.36059 -0.45767,-0.70743 -0.68172,-1.06456 -0.56122,-0.0288 -1.11075,-0.0701 -1.70561,-0.0628 z m -165.168199,2.15657 c -1.363418,0.0314 -2.734677,0.19295 -4.101403,0.4969 -1.53421,0.0417 -2.928866,0.33288 -4.292559,0.70179 -0.405956,0.71512 -0.80984,1.43105 -1.196044,2.15869 4.235182,-1.8696 8.819582,-3.08712 13.318602,-2.33612 0.149011,-0.2241 0.295482,-0.44975 0.446734,-0.67221 -1.37764,-0.23005 -2.7684,-0.38144 -4.17533,-0.34905 z m 164.801729,0 c -1.36344,0.0314 -2.73468,0.19295 -4.10141,0.4969 -1.40142,0.0381 -2.68815,0.27687 -3.94087,0.59565 0.28307,0.42673 0.55365,0.8622 0.82852,1.29479 3.6203,-1.31909 7.42739,-2.01715 11.16255,-1.33915 -0.15334,-0.26887 -0.30594,-0.53822 -0.46205,-0.80528 -1.15342,-0.1568 -2.31451,-0.26992 -3.48674,-0.24291 z m -165.261137,2.14919 c -0.657116,-0.0212 -1.324124,0.0172 -2.003441,0.13043 -2.380688,2.05552 -5.530612,2.55762 -8.42142,3.61083 -0.319333,0.65229 -0.621153,1.31408 -0.924624,1.97546 3.258516,0.56051 7.440359,0.31497 10.909615,1.11736 0.148398,-0.29306 0.296363,-0.58618 0.448319,-0.8771 -1.938318,-0.2575 -3.882696,-0.58986 -5.808605,-0.7134 -5.114374,-0.10674 1.161695,-3.30318 3.253347,-3.48358 1.127368,-0.53093 2.267458,-0.76813 3.405954,-0.79261 0.622961,-0.0134 1.242504,0.0962 1.861922,0.19697 0.134902,-0.21907 0.278586,-0.43189 0.415579,-0.64951 -1.028359,-0.27922 -2.068821,-0.48043 -3.136646,-0.51485 z m 164.801727,0 c -0.65712,-0.0212 -1.32413,0.0172 -2.00344,0.13043 -1.06596,0.92035 -2.30674,1.48889 -3.58972,1.97334 0.11372,0.19062 0.21948,0.38654 0.33162,0.57822 1.0107,-0.47116 2.04892,-0.86461 2.7142,-0.92199 1.12737,-0.53093 2.268,-0.76813 3.40648,-0.79261 1.7965,-0.0386 3.57798,0.4687 5.30696,1.17176 -0.12378,-0.24012 -0.24266,-0.48306 -0.36859,-0.72185 -1.89578,-0.71345 -3.7998,-1.35291 -5.79751,-1.4173 z m -164.254134,2.50878 c -0.798129,0.0136 -1.596878,0.11207 -2.389449,0.31631 -0.228792,0.88825 1.059956,1.3375 2.675127,1.57836 0.337559,-0.61219 0.68906,-1.21562 1.04238,-1.81757 -0.442147,-0.0414 -0.884359,-0.0847 -1.328058,-0.0771 z m 164.801724,0 c -0.79813,0.0136 -1.59688,0.11207 -2.38945,0.31631 -0.5315,2.06349 6.38907,2.1033 9.05086,1.35499 -0.0327,-0.0678 -0.0696,-0.133 -0.10244,-0.20066 -2.08363,-0.84849 -4.31261,-1.50892 -6.55897,-1.47064 z m -4.22813,2.99513 c 0.1492,0.28118 0.28871,0.56801 0.43458,0.85123 1.24543,0.11065 2.45475,0.28746 3.5591,0.6099 2.63514,0.038 5.28039,-0.1893 7.91712,-0.5365 -0.1156,-0.25803 -0.2305,-0.5164 -0.34851,-0.77308 -3.7566,1.19858 -7.6753,0.34295 -11.56229,-0.15155 z M 53.535019,171.943 c -0.111194,0.26563 -0.207658,0.53884 -0.316304,0.80581 1.817889,0.34096 3.510268,0.74488 4.711834,0.64212 2.151515,-0.75707 4.346194,-0.78345 6.550522,-0.62839 0.08855,-0.19068 0.169245,-0.38574 0.259274,-0.57558 -1.263171,-0.0397 -2.526461,-0.0781 -3.786682,-0.0412 -2.531598,0.64672 -4.968678,0.2253 -7.418644,-0.20277 z m 175.240841,0.23551 c 0.09,0.1896 0.17028,0.38461 0.25875,0.57505 3.06876,0.18981 6.16106,0.81202 9.21298,0.84384 0.75038,-0.0797 1.49409,-0.25535 2.24159,-0.37176 -0.12372,-0.3092 -0.23829,-0.623 -0.36542,-0.93043 -3.76761,0.25705 -7.56111,-0.0286 -11.3479,-0.1167 z m 5.18233,2.94708 c -1.24962,0.017 -2.50184,0.1059 -3.75235,0.23234 0.13578,0.32282 0.25337,0.65504 0.38495,0.98007 3.71482,-0.17835 7.45042,0.15092 11.1842,0.29201 -0.0567,-0.16093 -0.10609,-0.32531 -0.16369,-0.48581 -0.0311,-0.008 -0.0618,-0.01 -0.0929,-0.018 -2.4839,-0.78307 -5.0166,-1.03524 -7.56017,-1.00066 z m -170.751316,0.50693 c -0.55882,0.0734 -1.11992,0.13269 -1.676575,0.21281 -2.345384,0.68813 -6.539516,0.5345 -9.635946,0.34112 -0.08717,0.24326 -0.16311,0.49184 -0.248186,0.73611 3.311169,0.1095 6.598816,0.0471 9.963341,-0.12938 0.396128,-0.0778 0.795501,-0.0714 1.192348,-0.1299 0.136918,-0.34262 0.263433,-0.69057 0.405018,-1.03076 z m 179.261456,3.05321 c -3.51802,0.44613 -7.03798,0.85997 -10.56955,1.11631 0.14278,0.40744 0.27829,0.81825 0.41452,1.22878 1.67675,-0.0855 3.34711,-0.20877 5.01547,-0.24554 1.86421,-0.29524 3.74022,-0.45274 5.61428,-0.63103 -0.15038,-0.49315 -0.31594,-0.97915 -0.47472,-1.46852 z m -185.428082,1.12001 c -1.72233,0.29687 -4.520447,0.39032 -6.487155,0.43511 -0.134373,0.44231 -0.251061,0.89228 -0.378615,1.33757 3.52372,0.0926 7.184707,-0.0232 10.926513,-0.2334 0.150204,-0.45917 0.304192,-0.91655 0.462576,-1.37189 -1.506671,-0.0141 -3.012928,-0.0116 -4.523319,-0.16739 z m 186.724452,3.2544 c -3.27943,0.47564 -6.54385,1.05175 -9.77693,1.79591 -0.16242,0.0449 -0.32414,0.0577 -0.48634,0.0935 0.0703,0.25638 0.14868,0.5093 0.2165,0.76674 2.8195,-0.19397 5.62482,-0.52895 8.3665,-1.23618 0.63323,-0.24107 1.27548,-0.41923 1.92265,-0.56132 -0.0741,-0.28904 -0.1654,-0.57076 -0.24238,-0.85862 z m -186.776729,1.52027 c -1.964689,0.9363 -5.185781,0.48741 -7.698513,0.30522 -0.08497,0.34773 -0.159972,0.69933 -0.240793,1.04871 2.040687,0.18131 5.261129,-0.15889 6.758047,-0.30838 1.313917,0.081 2.640862,0.13703 3.966749,0.19168 0.106864,-0.40787 0.230022,-0.80879 0.343235,-1.214 -1.038845,-0.098 -2.080852,-0.13648 -3.128725,-0.0232 z m 181.754929,3.56965 c -1.3307,-0.11107 -2.64816,0.007 -3.93876,0.61677 -0.11757,-4.6e-4 -0.23926,0.006 -0.35697,0.006 0.0493,0.22322 0.10626,0.44351 0.15367,0.66746 3.61058,-0.82057 7.16586,0.39874 10.74856,0.77571 -0.0518,-0.28907 -0.0996,-0.57953 -0.1542,-0.86759 -2.14714,-0.27736 -4.31601,-1.01985 -6.4523,-1.19816 z m -179.709244,0.79103 c -3.550715,0.10173 -7.100471,0.22434 -10.584862,0.29941 v 0.84488 c 1.732556,0.0422 2.939128,0.46601 4.359622,0.35116 2.005184,-0.33047 3.997807,-0.42129 5.988143,-0.46258 0.07099,-0.34738 0.161554,-0.68721 0.237097,-1.03287 z m -10.687305,0.28832 c -0.05312,0.2781 -0.09841,0.55897 -0.148911,0.83802 0.08179,0.006 0.162694,0.0115 0.244489,0.0179 v -0.84488 c -0.02882,-0.003 -0.06664,-0.008 -0.09558,-0.0111 z m 193.431809,3.56648 c -2.14095,-6.8e-4 -4.28552,0.34675 -6.43224,0.66799 0.0766,0.48603 0.13928,0.97633 0.207,1.46535 0.42522,-0.0659 0.85101,-0.11553 1.2742,-0.23604 2.91812,-1.2571 6.07896,-0.95905 9.17178,-0.26561 -0.0465,-0.35947 -0.0854,-0.72128 -0.13623,-1.07935 -1.36041,-0.39394 -2.72196,-0.55191 -4.08451,-0.55234 z m -193.336231,0.27512 c -0.187005,3.2e-4 -0.535412,-6.3e-4 -0.748781,5.2e-4 -0.05078,0.3495 -0.08693,0.70369 -0.133598,1.05453 0.293678,0.0195 0.589527,0.0651 0.882379,0.0734 z m 0.0069,0 v 1.12845 c 1.335758,-0.12143 7.326651,0.48451 7.815213,0.68594 0.583864,-0.1951 1.170756,-0.31312 1.758951,-0.40079 0.05453,-0.37794 0.110698,-0.75496 0.170562,-1.13109 -3.190222,-0.0602 -6.330759,0.11139 -9.744726,-0.28251 z m -0.0069,5.21612 c -0.39863,0.0338 -0.880319,0.0722 -1.345484,0.10984 -0.02238,0.26711 -0.04073,0.53537 -0.06073,0.80317 0.468218,-0.008 0.938863,-0.0211 1.40621,-0.0312 z m 0.0069,0 v 0.88185 c 2.630856,0.002 5.769804,0.24529 9.019179,0.41294 0.0094,-0.11958 0.01699,-0.23965 0.02693,-0.35907 -3.114117,-0.30842 -6.67517,-0.9946 -9.046109,-0.93572 z m 187.526571,0.28304 c 0.039,0.42647 0.065,0.85682 0.0972,1.28529 3.51227,0.30277 7.02251,0.77657 10.53839,1.01492 -0.0224,-0.40125 -0.0626,-0.79735 -0.0903,-1.1971 -1.92152,0.005 -3.84171,0.0793 -5.74682,-0.0301 -1.58073,-0.66935 -3.18557,-0.93862 -4.79844,-1.07301 z m -187.533436,5.0556 c -0.428468,0.0462 -1.071713,0.0449 -1.626937,0.0718 -0.0084,0.34934 -0.02204,0.6973 -0.0264,1.04766 0.550721,-0.0186 1.10308,0.0135 1.65334,-0.0185 z m 0.0069,0 v 1.10099 c 0,0 4.635044,0.2213 5.43791,0.1975 1.126418,0.22733 2.230462,0.27123 3.327802,0.25874 0.0037,-0.43275 0.02217,-0.86167 0.03274,-1.29268 -3.036321,0.0177 -6.196526,-0.28349 -8.798452,-0.26455 z m 187.821226,0.15313 c 0.008,0.30906 0.0188,0.61731 0.0232,0.92727 3.33113,0.34792 6.70203,0.30489 10.02143,0.82007 0.14438,-0.003 0.29164,-0.019 0.43617,-0.0232 -0.001,-0.33144 -0.0199,-0.6585 -0.0248,-0.98904 -1.16475,0.0191 -2.3298,0.0959 -3.49414,0.0512 -2.34331,0.0804 -4.65477,-0.36042 -6.96188,-0.78628 z M 46.783309,206.764 c 0.0056,0.55553 0.02539,1.10726 0.04119,1.6602 0.538589,0.0637 1.080688,0.0885 1.617432,0.17215 v -1.63908 c -0.5482,-0.091 -1.1055,-0.12953 -1.65862,-0.19327 z m 1.665485,0.19327 v 1.63908 c 5.357398,1.08068 7.044344,-0.50846 8.802676,-0.5872 -0.0082,-0.30548 -0.01854,-0.61034 -0.02323,-0.9167 -3.938201,0.003 -8.779442,-0.13518 -8.779442,-0.13518 z m 198.002126,0.69069 c -1.77532,-0.0443 -3.55033,-0.0173 -5.32332,0.14786 -1.61685,0.36673 -3.24017,0.45144 -4.86497,0.43934 -0.007,0.23932 -0.009,0.47992 -0.018,0.71868 0.88133,-0.0302 1.76663,-0.0307 2.64345,-0.0539 2.59471,0.18228 5.19208,0.21616 7.79039,0.21281 0.0175,-0.48235 0.0267,-0.96675 0.0364,-1.4511 -0.088,-0.003 -0.17602,-0.0115 -0.26403,-0.0137 z m -198.008991,1.61321 c -0.389396,-0.0318 -1.040684,0.0448 -1.594197,0.0808 0.01482,0.38185 0.01467,0.76745 0.03432,1.14799 0.520475,0.006 1.086543,-0.01 1.559874,0.0164 v -5.2e-4 c 2.624592,-0.19638 3.16669,-0.24515 5.878836,0.20911 0.993837,-0.10098 2.013448,-0.10142 3.031564,-0.10614 -0.02628,-0.44347 -0.05024,-0.88734 -0.06918,-1.33281 -2.763544,1.02555 -6.18251,0.25246 -8.841224,-0.0148 z m 196.333471,0.74825 c -1.07964,-0.0173 -2.49415,0.0212 -4.57718,0.13941 -1.32159,0.15794 -2.66456,0.21508 -4.01322,0.2297 -0.0188,0.33408 -0.052,0.66405 -0.075,0.99697 3.08419,-0.91984 6.81907,-0.77906 10.49509,-0.44937 0.0146,-0.25824 0.0351,-0.51476 0.0475,-0.7736 -0.56194,-0.0631 -1.08831,-0.13045 -1.87724,-0.14311 z m -196.333471,1.94166 c -0.404355,0.0294 -0.957577,0.15987 -1.431557,0.2371 0.036,0.5078 0.07057,1.01601 0.115116,1.52133 0.429558,-0.002 0.902671,-0.0568 1.316441,-0.0401 z m 0.0069,0 v 1.71829 c 3.178097,-0.32994 6.174394,-0.0605 9.164394,0.3274 -0.03191,-0.3121 -0.04777,-0.62886 -0.07604,-0.94205 -3.170334,-0.12472 -6.310639,-0.17951 -9.088354,-1.10364 z m 187.461611,2.01612 c -0.0419,0.41141 -0.10652,0.81562 -0.15472,1.22508 3.47529,0.041 6.96227,0.24918 10.45021,0.46205 0.0381,-0.34492 0.0858,-0.68673 0.11987,-1.03287 -0.76056,-0.0325 -1.52501,-0.0302 -2.2812,-0.0755 -2.71199,-0.3159 -5.42231,-0.47255 -8.13416,-0.57874 z m -188.302802,1.52766 c -0.08665,-0.002 -0.220035,0.0213 -0.311025,0.0211 0.04496,0.41302 0.105134,0.82124 0.155776,1.23248 0.330825,0.013 0.657849,-0.0229 0.989575,0.004 v -1.19605 c -0.241965,-0.0342 -0.523411,-0.0539 -0.834326,-0.0613 z m 0.841191,0.0613 v 1.19605 c 3.284101,0.44405 6.485001,-0.0103 9.501821,-0.0856 -0.04329,-0.31635 -0.08087,-0.63451 -0.120397,-0.95208 -2.379878,0.28642 -7.508516,0.17672 -9.381424,-0.15842 z m 0,2.32767 v 0.77307 c 3.758276,-0.11334 6.877441,1.73134 10.294959,2.81137 -0.07938,-0.39582 -0.138843,-0.79859 -0.212278,-1.19658 -4.051815,-0.98703 -10.082681,-2.38786 -10.082681,-2.38786 z m -0.0069,5.3e-4 c -0.217451,-0.002 -0.56567,0.0855 -0.831686,0.11459 0.03072,0.22311 0.05263,0.44912 0.08502,0.67168 0.249253,-0.003 0.494528,-0.0267 0.746669,-0.0137 z m 186.950461,0.11195 c -0.0558,0.36223 -0.13039,0.71773 -0.19115,1.07828 0.77741,0.0402 1.55552,0.0644 2.3377,-0.038 2.72071,0.54859 5.47119,0.0974 8.25719,-0.13465 0.0362,-0.24421 0.0588,-0.49282 0.0929,-0.73769 -3.11613,-0.0986 -6.15622,-0.11421 -8.35013,0.31525 -0.91846,-0.23771 -1.38234,-0.29963 -2.14655,-0.48317 z m -186.950461,1.67551 c -0.194267,-0.009 -0.394452,0.032 -0.590365,0.037 0.05747,0.36432 0.13082,0.72289 0.19274,1.08568 0.122102,-0.0144 0.281367,-0.0424 0.397625,-0.0565 z m 0.0069,0 v 1.06615 c 1.516506,-0.13265 5.368138,0.83169 7.360558,1.84819 5.835284,1.02047 0.718129,3.52516 -2.126477,4.63421 -0.543193,0.99081 -2.639114,1.20731 -3.970973,1.28845 0.05231,0.19708 0.112696,0.39068 0.166337,0.5872 3.283656,-0.54465 6.352959,-2.77026 9.695089,-3.96516 -0.178444,-0.71073 -0.334748,-1.43025 -0.493732,-2.14866 -3.913339,-1.37706 -8.413865,-3.25656 -10.630802,-3.31038 z m 186.222271,2.30391 c -0.0559,0.26966 -0.1256,0.53402 -0.18429,0.80264 3.16816,0.38012 6.32779,0.83987 9.51449,1.03024 0.30139,0.0313 0.60609,0.0474 0.90773,0.0781 0.0707,-0.3401 0.13337,-0.68287 0.20013,-1.02443 -3.46751,-0.40374 -6.95555,-0.62449 -10.43806,-0.8866 z m -186.229136,0.057 c -0.0547,0.004 -0.117263,0.0233 -0.172674,0.028 0.05599,0.30128 0.102012,0.60598 0.161057,0.90615 0.0042,-0.001 0.0074,-0.004 0.01162,-0.005 z m 0.0069,0 v 0.92885 c 3.652616,-0.3703 3.069378,1.47816 0.569243,2.69413 0.101998,0.44409 0.197582,0.89085 0.306272,1.33229 1.238003,-0.25976 4.893647,-1.09409 5.574676,-2.77018 0,0 -4.566495,-2.32311 -6.450191,-2.18509 z m 191.222426,4.32002 c -2.00726,0.11622 -4.06448,0.1573 -6.11171,0.21491 -0.13082,0.48193 -0.26742,0.96135 -0.40713,1.43948 3.52709,-0.33057 7.05562,-0.71765 10.60704,-0.6099 0.114,-7.1e-4 0.22663,0.0115 0.3406,0.0111 0.0845,-0.33614 0.15275,-0.67881 0.2334,-1.01651 -1.55318,-0.0573 -3.10751,-0.0763 -4.6622,-0.0391 z M 60.256701,227.6148 c -1.097999,0.31291 -2.181095,0.68955 -3.226416,1.22192 -1.907059,0.98341 -4.60393,1.70122 -6.664053,1.98443 0.10897,0.36912 0.200522,0.74556 0.314192,1.11261 2.88577,-0.9238 6.518014,-3.31276 9.816542,-3.46985 -0.08406,-0.28133 -0.159275,-0.56645 -0.240265,-0.84911 z m 182.592949,4.28463 c -0.84421,0.0722 -1.6886,0.16534 -2.53255,0.32053 -2.89456,1.06228 -5.89526,1.17983 -8.91304,1.09519 -0.10648,0.28631 -0.22507,0.56652 -0.33478,0.85122 3.72071,-0.16789 7.44259,-0.29296 11.16308,-0.42878 0.20475,-0.61321 0.42579,-1.21889 0.61729,-1.83816 z m -182.90503,1.15908 c -2.375932,0.61053 -5.85914,1.01252 -8.563467,0.9542 0.06659,0.19723 0.131129,0.39536 0.199077,0.59195 1.33802,-0.0799 2.229901,-0.16815 3.403842,-0.0459 2.508342,-0.0156 5.012466,-0.16753 7.518447,-0.26139 -0.149841,-0.38673 -0.310788,-0.76778 -0.454656,-1.15749 -0.700602,-0.0325 -1.406819,-0.0705 -2.103243,-0.0813 z m 170.11396,3.63989 c -0.22908,0.53754 -0.47857,1.06403 -0.71921,1.59525 0.32363,0.0431 0.67034,0.0233 0.98746,0.0824 3.4007,-0.0259 6.79987,0.0263 10.20044,0.0243 0.13134,-0.32942 0.26172,-0.65923 0.38917,-0.99063 -2.64683,0.0842 -5.28867,0.092 -7.90762,-0.45149 -0.9869,-0.20709 -1.96933,-0.26275 -2.95024,-0.2598 z m -166.553813,0.0951 c -3.164565,0.25035 -6.318394,0.95035 -9.517663,0.37439 -0.152207,-0.0735 -0.890722,-0.0269 -1.481722,-0.01 0.180968,0.47496 0.36763,0.94693 0.55657,1.41783 3.587342,-0.33556 7.493395,-0.72903 11.104996,-0.31314 -0.221475,-0.48946 -0.450519,-0.97474 -0.662181,-1.46957 z m 168.202403,3.75288 c -1.13513,0.0138 -2.32745,0.10978 -3.5348,0.22073 -0.0977,0.19687 -0.20016,0.39075 -0.29941,0.58667 1.0814,-0.10843 2.17772,-0.113 3.30193,0.0639 2.5917,0.24423 5.18419,0.46626 7.77719,0.6812 0.1198,-0.26423 0.24025,-0.52803 0.35749,-0.79367 -1.65791,-0.11392 -3.30922,-0.30267 -4.94629,-0.66113 -0.83838,-0.0804 -1.72975,-0.10893 -2.65611,-0.0977 z m -166.414409,0.11406 c -3.612756,0.19441 -7.440282,0.76686 -10.808229,1.25202 0.161725,0.35895 0.318884,0.72038 0.485283,1.07671 3.577712,-0.60984 7.014374,-1.9315 10.702089,-1.58628 -0.125793,-0.24787 -0.255915,-0.49305 -0.379143,-0.74245 z m 166.047939,2.04252 c -1.36344,0.0314 -2.73468,0.19242 -4.10141,0.49637 -0.11714,0.003 -0.21595,0.0392 -0.33161,0.0449 -0.21376,0.3949 -0.44769,0.77679 -0.66799,1.16753 3.82364,-1.09392 7.79095,-1.35893 11.61192,0.0491 0.12561,-0.25634 0.25809,-0.50846 0.38126,-0.76621 -2.23988,-0.64925 -4.54668,-1.04566 -6.89217,-0.99169 z m -164.992885,0.0232 c -1.300539,0.0415 -2.607224,0.18336 -3.910247,0.47314 -2.437915,0.0662 -4.547053,0.6869 -6.68676,1.42153 0.268345,0.54477 0.548724,1.08236 0.82799,1.6206 3.250858,-1.47141 6.700447,-2.57722 10.191461,-2.71949 -0.143966,-0.26337 -0.281425,-0.53055 -0.422444,-0.79578 z m -0.268252,2.12595 c -0.657116,-0.0212 -1.324124,0.0167 -2.003441,0.12991 -1.882881,1.62571 -4.242547,2.28982 -6.580092,3.01097 0.275761,0.50319 0.570144,0.99417 0.855449,1.49122 -0.169099,-0.96358 3.635644,-2.73931 5.181275,-2.87262 1.127368,-0.53093 2.267458,-0.76813 3.405954,-0.79261 0.409358,-0.009 0.815316,0.0869 1.223504,0.12938 -0.18282,-0.30771 -0.356215,-0.62159 -0.53492,-0.93202 -0.511182,-0.0837 -1.025663,-0.14739 -1.547729,-0.16423 z m 164.801727,0 c -0.65712,-0.0212 -1.32413,0.0167 -2.00344,0.12991 -1.25595,1.0844 -2.7478,1.69356 -4.282,2.21994 -0.31546,0.50892 -0.64068,1.01082 -0.9674,1.51182 1.03431,-0.92966 3.51775,-1.99975 4.7055,-2.10219 1.12737,-0.53093 2.268,-0.76813 3.40648,-0.79261 1.65436,-0.0356 3.30304,0.38911 4.90405,1.00384 0.0839,-0.15876 0.16261,-0.32067 0.24555,-0.48001 -1.96512,-0.74687 -3.93711,-1.42391 -6.00874,-1.4907 z M 66.627156,247.3609 c -0.798129,0.0136 -1.596878,0.11207 -2.389449,0.31631 -0.382187,1.48378 3.114922,1.89045 6.107484,1.74628 -0.397852,-0.59596 -0.777308,-1.20486 -1.159081,-1.81229 -0.847757,-0.15605 -1.701283,-0.26491 -2.558954,-0.2503 z m 164.801724,0 c -0.79813,0.0136 -1.59688,0.11207 -2.38945,0.31631 -0.3846,1.49316 3.1598,1.89834 6.16452,1.74575 0.24701,-0.43115 0.50207,-0.85692 0.74191,-1.29268 -1.47802,-0.45372 -2.98604,-0.79547 -4.51698,-0.76938 z m -8.25878,2.06945 c -0.32876,0.49236 -0.67326,0.97257 -1.01281,1.4569 2.9892,0.18253 6.30864,0.13272 9.03714,0.92938 0.88417,0.0128 1.77037,-0.0433 2.65611,-0.084 0.14429,-0.23482 0.29035,-0.46813 0.43248,-0.70443 -3.04906,-0.0619 -6.146,-0.73653 -9.20189,-0.93254 -1.39915,-0.0292 -1.8979,-0.29862 -1.91103,-0.66535 z m -164.760007,0.15578 c 0.272771,0.47373 0.534505,0.95454 0.815845,1.42258 2.453571,0.0968 5.008896,0.17772 7.167289,0.80792 1.809249,0.0261 3.622612,-0.0983 5.43527,-0.27353 -0.123077,-0.17177 -0.245282,-0.34415 -0.366998,-0.51697 -3.675386,0.36917 -7.463532,-0.69191 -11.182092,-0.93043 -1.18939,-0.0248 -1.716098,-0.2273 -1.869314,-0.50957 z m 2.54364,3.86219 c -0.05621,0.0144 -0.111273,0.0157 -0.167393,0.029 0.120377,0.18587 0.236275,0.37486 0.358021,0.55974 4.066023,-0.37163 8.222526,0.81979 12.301568,0.86232 0.273305,-0.029 0.543522,-0.1011 0.816373,-0.13571 -0.291137,-0.36501 -0.580263,-0.73174 -0.864954,-1.10206 -4.138759,0.0841 -8.301797,-0.3348 -12.443615,-0.21333 z m 164.801727,0 c -1.87894,0.47998 -3.70223,0.33481 -5.52029,0.0708 -0.21047,0.2751 -0.42755,0.54471 -0.64158,0.8169 1.18914,0.23129 2.30083,0.42863 3.13875,0.35697 3.09746,-1.08993 6.27737,-0.77903 9.46011,-0.36911 0.16083,-0.24217 0.31202,-0.49119 0.4705,-0.73506 -2.30418,-0.0998 -4.60925,-0.20786 -6.90749,-0.14046 z m -156.598921,2.97929 c -2.002575,0.0272 -4.008644,0.2508 -6.006625,0.51432 0.218222,0.30389 0.428023,0.61419 0.650036,0.91512 4.35239,-0.48116 8.738512,-0.0938 13.123749,0.0745 -0.164955,-0.18578 -0.324721,-0.37608 -0.487922,-0.56344 -2.394507,-0.71593 -4.830747,-0.97375 -7.279238,-0.94046 z m 161.431151,0.20858 c -1.42246,0.13414 -2.84311,0.30787 -4.25559,0.51116 -2.25852,0.66265 -6.25202,0.54107 -9.36664,0.35802 -0.20791,0.23757 -0.40921,0.48103 -0.61994,0.71604 3.34602,0.11595 6.66661,0.0526 10.06578,-0.12568 1.13067,-0.22203 2.26729,-0.29037 3.40332,-0.37069 0.26347,-0.35852 0.51497,-0.72617 0.77307,-1.08885 z m -151.881277,3.22747 c -4.109666,0.5128 -8.223684,1.02495 -12.351734,1.28793 0.326627,0.40119 0.661808,0.7945 0.995384,1.1897 1.730742,-0.0892 3.454939,-0.21551 5.177051,-0.25346 2.489279,-0.39423 4.990816,-0.64922 7.496796,-0.84225 -0.449411,-0.45068 -0.879161,-0.9204 -1.317497,-1.38192 z m 143.135627,1.2441 c -2.50932,0.43253 -8.59145,0.48581 -8.59145,0.48581 -0.0367,-10e-4 -0.0747,10e-4 -0.11142,0 -0.40277,0.39881 -0.81954,0.78333 -1.2309,1.17334 0.44788,0.0241 0.89401,0.0748 1.34232,0.0924 4.03161,0.21105 8.3067,0.0324 12.65484,-0.21175 0.38206,-0.44842 0.7707,-0.89086 1.14376,-1.34707 -1.73384,0.005 -3.46841,-0.0134 -5.20715,-0.19274 z m -139.028944,2.80397 c -4.122398,0.47583 -8.222961,1.10785 -12.280446,1.99077 0.292095,0.31003 0.585284,0.6189 0.881852,0.92462 1.974933,-0.22752 3.937283,-0.54638 5.868275,-1.04449 2.102965,-0.8006 4.297441,-0.95034 6.505637,-1.02548 -0.32309,-0.28403 -0.657006,-0.55617 -0.975318,-0.84542 z m 125.678664,1.91842 c -0.26554,0.22377 -0.52511,0.45406 -0.79367,0.67433 2.0364,0.23323 4.03492,0.54867 5.5525,0.72766 1.95159,0.31073 5.73278,-0.14186 7.35792,-0.30416 0.44375,0.0274 0.89427,0.0397 1.33967,0.065 0.35512,-0.36416 0.70367,-0.73436 1.05242,-1.10469 -0.40388,0.004 -0.80536,-0.0496 -1.21083,-0.006 -2.17123,1.03473 -5.97058,0.36316 -8.53918,0.24713 -1.0365,0.001 -2.84348,-0.11571 -4.75883,-0.29941 z M 88.237277,268.4002 c -0.78675,0.36532 -1.579656,0.70985 -2.336115,1.17545 -3.803385,2.57173 -7.852308,0.2922 -11.791996,-0.0919 0.446826,0.42245 0.882917,0.8559 1.33862,1.26891 2.97177,0.46135 5.936614,1.23055 8.941026,0.69598 1.478957,-0.90776 3.025685,-1.74928 4.627874,-2.46602 -0.261194,-0.19257 -0.520727,-0.38672 -0.779409,-0.58244 z m 115.682583,0.99644 c -0.46746,0.33809 -0.93629,0.67432 -1.41149,1.00224 3.52694,0.58693 7.13314,0.70484 10.74222,0.98852 1.46553,0.0357 2.56319,0.29086 3.72384,0.31578 0.49539,-0.43422 0.99534,-0.86281 1.48067,-1.30799 -1.73695,0.0517 -3.49126,0.11041 -5.20451,0.14733 -2.82707,-0.26231 -6.11533,-0.6871 -9.33073,-1.14588 z m -113.038612,0.90984 c -1.201384,0.29252 -2.382134,0.6736 -3.51051,1.27472 -5.228996,1.70874 1.764325,2.06626 3.272885,3.50259 3.052184,0.83383 6.277409,1.03723 9.451127,0.70654 -0.470803,-0.23834 -0.944156,-0.47225 -1.409378,-0.71974 -2.371879,0.32052 -4.723933,0.3368 -6.89851,-0.64529 -2.833005,-1.57021 -1.995057,-2.92025 -0.243961,-3.64938 -0.224045,-0.15187 -0.439287,-0.31532 -0.661653,-0.46944 z m 3.174666,2.08792 c 0.170964,0.51033 0.74524,0.81937 1.593142,0.9674 -0.535405,-0.31628 -1.066093,-0.63883 -1.593142,-0.9674 z m 106.008616,0.97532 c -1.1007,0.0195 -2.18102,0.26701 -3.25493,0.60146 -3.26123,1.85817 -6.66845,3.48724 -10.20413,4.86919 0.52656,-0.13599 1.05531,-0.26343 1.57254,-0.43723 4.64916,-1.05354 8.51458,-4.85035 13.53035,-4.00846 3.60268,-0.13008 7.18873,0.81256 10.71952,1.03868 0.44235,-0.338 0.87767,-0.68455 1.31327,-1.03076 -0.16688,-0.0166 -0.32235,-0.0102 -0.49056,-0.0296 -2.54765,0.004 -7.75115,0.10841 -9.9079,-0.30469 -1.11997,-0.52517 -2.20872,-0.71755 -3.27816,-0.69862 z m -120.330522,0.99697 c 0.611898,0.48699 1.220365,0.97826 1.845552,1.44898 1.811231,0.42773 3.60134,0.94368 5.282662,1.4379 5.902833,2.57987 12.775785,3.21362 18.918628,1.14957 0.004,-9.1e-4 0.008,-0.003 0.0116,-0.004 -0.6515,-0.26636 -1.296,-0.54478 -1.93849,-0.82799 -3.10437,0.86719 -6.35945,1.20291 -9.567824,0.9035 -4.460706,-0.78283 -8.581087,-3.02218 -13.079921,-3.79302 -0.490594,-0.14848 -0.981358,-0.22688 -1.472217,-0.31472 z m 126.017142,4.83804 c -3.95842,-0.0999 -7.88592,0.59731 -11.8147,1.19499 -4.34846,0.40622 -8.41354,2.3546 -12.85972,2.02984 -1.89614,0.32567 -3.76481,0.13437 -5.63118,-0.16792 -1.65019,0.37359 -3.31579,0.70707 -5.00437,0.97532 3.32193,0.43963 6.67776,0.61622 10.02829,0.27987 5.20297,-1.22846 10.73165,-0.29698 15.83108,-2.0441 2.80415,-0.48005 5.64992,-0.69838 8.50697,-0.81374 0.70826,-0.4309 1.39794,-0.88833 2.09268,-1.33862 -0.38252,-0.0253 -0.76713,-0.10601 -1.14905,-0.11564 z m -94.39299,1.22509 c -4.27957,0.44254 -8.29499,2.31993 -12.678597,1.99974 -2.644209,0.45415 -5.237373,-0.062 -7.842144,-0.54442 1.099993,0.62753 2.214664,1.23124 3.344172,1.81175 1.296371,0.002 2.59399,-0.0499 3.890181,-0.18006 5.202968,-1.22846 10.731638,-0.29698 15.831088,-2.0441 0.22297,-0.0382 0.44979,-0.0516 0.67327,-0.0866 -1.08185,-0.29807 -2.15569,-0.61375 -3.21797,-0.9563 z m 35.78893,3.91658 c -0.65249,0.0221 -1.30639,0.0847 -1.96226,0.1996 -4.19764,1.31869 -10.05245,0.35112 -14.3388,0.38232 v 5.2e-4 c -1.85761,0.19946 -5.35205,0.24391 -6.54049,-0.0935 -5.6068,0.74953 -11.27774,0.97915 -16.94792,0.75776 -3.41254,-0.5539 -6.83411,-0.56793 -10.258525,-0.45624 1.139416,0.53269 2.288164,1.04848 3.454005,1.53294 3.65918,-0.21937 7.3724,-0.95269 11.14671,-0.10667 6.35844,-0.79846 12.77156,-0.1645 19.14992,-0.53439 0.007,3.4e-4 4.63248,0.22181 5.43474,0.19802 4.98113,1.0053 9.60124,-0.90672 14.53894,-0.67327 4.31336,0.89716 8.74506,0.60133 13.08731,1.27526 5.17193,-0.11286 10.44655,-0.93906 15.64521,-0.15842 4.53268,0.38926 9.15211,-1.00689 13.86197,-0.17954 0.67973,-0.2869 1.34275,-0.6043 2.01348,-0.90773 -1.8914,0.0292 -3.78242,0.084 -5.67607,0.01 -9.6078,-1.55947 -19.27685,0.64465 -28.92738,0.27406 -4.61538,0.15828 -9.11341,-1.67565 -13.68084,-1.5208 z m -22.90703,3.42655 c -2.22276,0.011 -4.45135,0.16994 -6.64926,0.40132 -3.76748,0.64794 -7.57826,0.56533 -11.37959,0.60146 0.91328,0.30706 1.82873,0.60849 2.75539,0.88607 1.24695,-0.12742 2.49454,-0.24901 3.7418,-0.35855 6.03695,0.0499 12.14912,-0.3378 18.13763,0.59406 v 10e-4 c 6.00596,1.21151 7.39752,-1.045 9.45007,-0.62733 5.25988,1.53891 10.7816,1.07352 16.18753,0.93096 6.50982,0.45732 13.03384,0.0813 19.55915,0.12357 1.96796,0.15728 3.92968,0.14631 5.8894,0.0771 1.78536,-0.47445 3.54316,-1.01264 5.28108,-1.59472 -2.41679,0.0536 -4.82883,0.17519 -7.21693,0.66323 -7.05834,0.51589 -14.18127,-1.03379 -21.27322,-0.37333 -5.21846,1.18365 -10.50091,-0.086 -15.6996,-0.70971 -3.36562,0.21 -12.15662,-0.12832 -12.17009,-0.12884 -2.17356,-0.3607 -4.39058,-0.49734 -6.61336,-0.48634 z m 15.85697,2.69572 c -2.82101,1.2679 -6.45752,0.37783 -9.24361,0.0961 v -0.002 c -2.56946,-0.20988 -9.14538,1.22825 -12.23239,1.38931 0.84173,0.15078 1.68039,0.3095 2.53044,0.43618 3.27551,-0.52707 6.93718,-0.73298 9.70195,-0.57981 v -0.002 c 2.60991,-0.19531 3.15831,-0.24258 5.86458,0.21069 5.33185,-0.5417 11.08601,0.52614 16.48482,0.7905 4.69572,-1.61951 11.42337,-0.57169 16.40456,-0.0702 1.0135,-0.11846 2.02863,-0.23135 3.03103,-0.38389 -0.14465,-0.0106 -0.43274,-0.006 -0.56396,-0.018 -8.31606,-0.55667 -5.94807,-1.35784 -14.28019,-0.88502 -5.80249,0.69342 -11.95104,-0.18155 -17.69723,-0.98218 z m -9.251,2.78443 v 10e-4 c -0.0324,0.002 -0.0817,0.0163 -0.11459,0.019 0.0786,0.003 0.15795,0.003 0.23657,0.006 -0.0366,-0.0118 -0.0781,-0.0117 -0.11459,-0.0238 v -0.002 c -0.002,1.2e-4 -0.004,4.1e-4 -0.005,5.3e-4 -6.8e-4,-2.3e-4 -0.001,-3e-4 -0.002,-5.3e-4 z" />
      <path
         id="path28"
         style="display:inline;opacity:1;fill:none;fill-opacity:1;fill-rule:nonzero;stroke:#000000;stroke-width:1.02185;stroke-linecap:square;stroke-miterlimit:10;stroke-dasharray:none;stroke-opacity:1;paint-order:fill markers stroke"
         inkscape:label="Wood Stroke"
         d="m 134.25993,118.36151 c -48.474954,0 -87.499571,39.02514 -87.499571,87.50009 0,48.47495 39.024617,87.50008 87.499571,87.50008 h 25.00002 c 48.47495,0 87.50009,-39.02513 87.50009,-87.50008 0,-48.47495 -39.02514,-87.50009 -87.50009,-87.50009 z m 1.30483,9.13278 h 22.39088 c 43.41536,0 78.36679,34.95195 78.36679,78.36731 0,43.41536 -34.95143,78.36731 -78.36679,78.36731 h -22.39088 c -43.415364,0 -78.367312,-34.95195 -78.367312,-78.36731 0,-43.41536 34.951948,-78.36731 78.367312,-78.36731 z" />
    </g>
  </g>
</svg>
